<?xml version="1.0" standalone="no"?><!DOCTYPE svg PUBLIC "-//W3C//DTD SVG 1.1//EN" "http://www.w3.org/Graphics/SVG/1.1/DTD/svg11.dtd"><svg t="1584780876720" class="icon" viewBox="0 0 1024 1024" version="1.1" xmlns="http://www.w3.org/2000/svg" p-id="1029" xmlns:xlink="http://www.w3.org/1999/xlink" width="32" height="32"><defs><style type="text/css"></style></defs><path d="M859.136 462.848c-12.288-39.936-36.864-88.064-54.272-123.904-10.24-20.48-20.48-41.984-21.504-46.08 0-34.816-203.776-35.84-266.24-35.84-60.416 0-254.976 4.096-265.216 35.84-1.024 2.048-76.8 212.992-75.776 393.216v2.048c2.048 17.408 20.48 32.768 54.272 43.008 31.744 10.24 72.704 15.36 115.712 15.36h3.072c30.72 0 61.44-3.072 87.04-9.216 14.336 41.984 113.664 64.512 208.896 64.512h4.096c56.32 0 108.544-8.192 148.48-21.504 43.008-14.336 65.536-33.792 65.536-56.32h-1.024c7.168-33.792 9.216-97.28 9.216-101.376 1.024-30.72 2.048-112.64-12.288-159.744z" fill="#F2EDEC" p-id="1030"></path><path d="M835.584 425.984c-12.288-39.936-36.864-88.064-54.272-123.904-10.24-20.48-20.48-41.984-21.504-46.08 0-34.816-203.776-35.84-266.24-35.84-60.416 0-254.976 4.096-265.216 35.84-1.024 2.048-76.8 212.992-75.776 393.216v2.048c2.048 17.408 20.48 32.768 54.272 43.008 31.744 10.24 72.704 15.36 115.712 15.36h3.072c30.72 0 61.44-3.072 87.04-9.216 14.336 41.984 113.664 64.512 208.896 64.512h4.096c56.32 0 108.544-8.192 148.48-21.504 43.008-14.336 65.536-33.792 65.536-56.32h-1.024c7.168-33.792 9.216-97.28 9.216-101.376 1.024-30.72 2.048-113.664-12.288-159.744z m-69.632-116.736c0 1.024 1.024 1.024 1.024 2.048-18.432 11.264-125.952 30.72-271.36 31.744-148.48 0-258.048-15.36-270.336-26.624 6.144-19.456 11.264-34.816 14.336-45.056 40.96 19.456 175.104 22.528 238.592 22.528h16.384c53.248 0 207.872-3.072 252.928-25.6 3.072 9.216 9.216 21.504 18.432 40.96z m6.144 245.76c-4.096 99.328-9.216 160.768-10.24 177.152-6.144 2.048-12.288 3.072-18.432 5.12 2.048-25.6 8.192-91.136 11.264-182.272 4.096-99.328-26.624-181.248-40.96-212.992l15.36-3.072c7.168 18.432 47.104 111.616 43.008 216.064z m-371.712-39.936l-5.12-4.096c-7.168-5.12-11.264-13.312-12.288-21.504l-10.24-133.12 17.408 1.024 10.24 157.696zM225.28 318.464V317.44v1.024z m268.288-81.92c137.216-1.024 225.28 10.24 246.784 19.456-20.48 9.216-109.568 21.504-246.784 22.528-137.216 1.024-225.28-10.24-246.784-19.456 21.504-9.216 109.568-21.504 246.784-22.528zM325.632 695.296c-43.008 0-83.968-5.12-114.688-14.336-26.624-8.192-43.008-20.48-43.008-30.72 0-114.688 30.72-240.64 52.224-317.44 23.552 12.288 79.872 19.456 136.192 22.528L367.616 491.52c1.024 13.312 8.192 25.6 18.432 33.792l16.384 12.288 9.216 148.48c-25.6 5.12-55.296 8.192-86.016 9.216z m300.032 55.296c-114.688 1.024-194.56-28.672-197.632-56.32l-9.216-143.36-2.048-34.816-10.24-157.696c38.912 1.024 71.68 2.048 83.968 2.048h5.12c50.176 0 136.192-4.096 201.728-14.336 12.288 27.648 45.056 109.568 40.96 209.92-4.096 98.304-9.216 165.888-11.264 186.368-30.72 4.096-65.536 8.192-101.376 8.192zM778.24 726.016c2.048-24.576 7.168-82.944 10.24-171.008 4.096-104.448-32.768-194.56-44.032-220.16 12.288-3.072 22.528-6.144 28.672-10.24C790.528 358.4 808.96 398.336 819.2 431.104c23.552 73.728 9.216 251.904 1.024 266.24l1.024 1.024c-5.12 9.216-20.48 19.456-43.008 27.648z" fill="#3B0005" p-id="1031"></path><path d="M395.264 510.976l5.12 4.096-10.24-157.696-17.408-1.024 10.24 133.12c1.024 9.216 6.144 16.384 12.288 21.504z" fill="#0379F5" p-id="1032"></path><path d="M713.728 342.016c14.336 32.768 44.032 113.664 40.96 212.992-3.072 91.136-9.216 156.672-11.264 182.272 6.144-2.048 12.288-3.072 18.432-5.12 2.048-17.408 7.168-78.848 10.24-177.152 4.096-104.448-35.84-197.632-44.032-215.04-4.096 0-9.216 1.024-14.336 2.048z" fill="#F4EEEB" p-id="1033"></path><path d="M495.616 358.4h-5.12c-11.264 0-45.056 0-83.968-2.048l10.24 157.696 2.048 34.816 9.216 143.36c3.072 27.648 83.968 57.344 197.632 56.32 35.84 0 69.632-3.072 100.352-9.216 2.048-20.48 8.192-88.064 11.264-186.368 4.096-101.376-28.672-182.272-40.96-209.92-64.512 11.264-150.528 15.36-200.704 15.36zM225.28 317.44c0 1.024 0 1.024-1.024 2.048h1.024V317.44zM386.048 524.288c-10.24-8.192-17.408-20.48-18.432-33.792l-11.264-136.192c-55.296-3.072-111.616-10.24-136.192-22.528-22.528 76.8-53.248 202.752-52.224 317.44 0 10.24 16.384 21.504 43.008 30.72 30.72 10.24 70.656 15.36 114.688 14.336 30.72 0 59.392-3.072 84.992-9.216l-9.216-149.504-15.36-11.264z" fill="#0379F5" p-id="1034"></path><path d="M495.616 342.016c145.408-1.024 252.928-19.456 271.36-31.744 0-1.024-1.024-1.024-1.024-2.048-9.216-19.456-15.36-31.744-19.456-39.936-45.056 22.528-200.704 25.6-252.928 25.6h-16.384c-63.488 0-196.608-2.048-238.592-22.528-3.072 9.216-8.192 24.576-14.336 45.056 13.312 11.264 122.88 26.624 271.36 25.6z" fill="#F4EEEB" p-id="1035"></path><path d="M493.568 278.528c136.192-1.024 225.28-13.312 246.784-22.528-21.504-9.216-109.568-19.456-246.784-19.456-136.192 1.024-225.28 13.312-246.784 22.528 21.504 9.216 109.568 19.456 246.784 19.456z" fill="#F4EEEB" p-id="1036"></path><path d="M788.48 555.008c-3.072 88.064-8.192 147.456-10.24 171.008 22.528-8.192 36.864-18.432 43.008-28.672l-1.024-1.024c8.192-13.312 22.528-192.512-1.024-266.24-10.24-32.768-29.696-72.704-46.08-106.496-7.168 4.096-16.384 7.168-28.672 10.24 11.264 26.624 48.128 116.736 44.032 221.184zM635.904 352.256c16.384 64.512 35.84 186.368 3.072 398.336 33.792-1.024 59.392-3.072 88.064-9.216 2.048-20.48 8.192-88.064 11.264-186.368 4.096-101.376-28.672-182.272-40.96-209.92-19.456 2.048-40.96 5.12-61.44 7.168zM344.064 694.272c29.696 0 52.224-5.12 67.584-8.192l-9.216-149.504-16.384-12.288c-7.168-5.12-13.312-13.312-15.36-21.504l-26.624 191.488z" fill="#0A66EA" p-id="1037"></path></svg>