<?xml version="1.0" standalone="no"?><!DOCTYPE svg PUBLIC "-//W3C//DTD SVG 1.1//EN" "http://www.w3.org/Graphics/SVG/1.1/DTD/svg11.dtd"><svg t="1584781000327" class="icon" viewBox="0 0 1024 1024" version="1.1" xmlns="http://www.w3.org/2000/svg" p-id="2287" xmlns:xlink="http://www.w3.org/1999/xlink" width="32" height="32"><defs><style type="text/css"></style></defs><path d="M831.488 747.52c0-3.072-1.024-7.168-2.048-10.24 1.024-48.128-33.792-93.184-54.272-115.712-18.432-19.456-65.536-73.728-115.712-132.096 2.048-15.36 9.216-69.632-3.072-92.16-16.384-28.672-133.12-113.664-146.432-122.88-17.408-12.288-38.912-12.288-53.248-8.192-34.816-23.552-84.992-44.032-148.48-31.744-59.392 12.288-80.896 44.032-89.088 68.608-1.024 5.12-2.048 9.216-3.072 14.336 0 1.024-1.024 2.048-1.024 3.072-5.12 19.456-9.216 53.248-9.216 61.44 1.024 32.768 19.456 68.608 51.2 101.376 66.56 68.608 362.496 357.376 365.568 360.448 1.024 0 38.912 33.792 90.112 33.792 21.504 0 44.032-6.144 67.584-21.504 37.888-26.624 57.344-66.56 51.2-108.544z" fill="#F2EDEC" p-id="2288"></path><path d="M817.152 713.728c0-3.072-1.024-7.168-2.048-10.24 1.024-48.128-33.792-93.184-54.272-115.712-18.432-19.456-65.536-73.728-115.712-132.096 2.048-15.36 9.216-69.632-3.072-92.16-16.384-28.672-133.12-113.664-146.432-122.88-17.408-12.288-38.912-12.288-53.248-8.192-34.816-23.552-84.992-44.032-148.48-31.744-59.392 12.288-80.896 44.032-89.088 68.608-1.024 5.12-2.048 9.216-3.072 14.336 0 1.024-1.024 2.048-1.024 3.072-5.12 19.456-9.216 53.248-9.216 61.44 1.024 32.768 19.456 68.608 51.2 101.376 66.56 68.608 362.496 357.376 365.568 360.448 1.024 0 38.912 33.792 90.112 33.792 21.504 0 44.032-6.144 67.584-21.504 37.888-26.624 56.32-66.56 51.2-108.544zM580.608 380.928c2.048-1.024 5.12-2.048 7.168-3.072 14.336-7.168 36.864-12.288 40.96-6.144 7.168 13.312 5.12 45.056 3.072 67.584-18.432-19.456-35.84-39.936-51.2-58.368z m30.72-27.648c-13.312 2.048-26.624 8.192-31.744 9.216-3.072 1.024-7.168 3.072-11.264 5.12h-1.024c-43.008 23.552-128 88.064-135.168 145.408-2.048 23.552-2.048 38.912-2.048 51.2-56.32-54.272-109.568-107.52-143.36-140.288-2.048-11.264-11.264-65.536 44.032-101.376 20.48-13.312 38.912-25.6 55.296-35.84 22.528-14.336 41.984-27.648 55.296-35.84 5.12-3.072 26.624-8.192 44.032 4.096 39.936 27.648 98.304 71.68 125.952 98.304z m-391.168-78.848c9.216-29.696 35.84-49.152 75.776-57.344 12.288-3.072 24.576-4.096 36.864-4.096 37.888 0 68.608 12.288 93.184 27.648-12.288 8.192-29.696 19.456-49.152 31.744-16.384 11.264-35.84 23.552-56.32 35.84-44.032 29.696-52.224 70.656-52.224 97.28l-4.096-4.096c-37.888-39.936-55.296-90.112-44.032-126.976z m536.576 533.504c-69.632 48.128-135.168-9.216-137.216-11.264-3.072-3.072-299.008-290.816-365.568-359.424-28.672-29.696-45.056-62.464-46.08-90.112v-5.12c8.192 24.576 23.552 49.152 45.056 70.656 62.464 64.512 324.608 317.44 376.832 367.616 9.216 9.216 21.504 15.36 33.792 19.456 10.24 3.072 23.552 5.12 38.912 5.12 22.528 0 48.128-6.144 72.704-25.6 9.216-7.168 16.384-15.36 22.528-23.552-7.168 20.48-20.48 38.912-40.96 52.224zM798.72 706.56c-2.048 22.528-13.312 43.008-34.816 60.416-34.816 28.672-75.776 22.528-96.256 16.384-10.24-3.072-19.456-8.192-26.624-15.36-26.624-25.6-109.568-105.472-192.512-186.368-1.024-5.12-5.12-24.576 1.024-65.536 6.144-45.056 72.704-100.352 115.712-126.976 67.584 77.824 155.648 180.224 182.272 208.896 20.48 22.528 54.272 65.536 51.2 108.544z" fill="#3B0005" p-id="2289"></path><path d="M401.408 297.984c-13.312 14.336-19.456 31.744-18.432 51.2 1.024 18.432 10.24 35.84 24.576 48.128 11.264 9.216 26.624 13.312 41.984 13.312 23.552 0 49.152-10.24 64.512-28.672 14.336-16.384 20.48-33.792 18.432-51.2-1.024-14.336-9.216-27.648-21.504-37.888-28.672-22.528-79.872-25.6-109.568 5.12z m98.304 8.192c9.216 8.192 15.36 17.408 16.384 27.648 1.024 12.288-4.096 25.6-15.36 38.912-20.48 24.576-61.44 30.72-83.968 13.312-10.24-8.192-17.408-21.504-18.432-35.84-1.024-14.336 4.096-28.672 14.336-38.912 11.264-12.288 28.672-17.408 45.056-17.408 16.384-2.048 31.744 3.072 41.984 12.288zM641.024 536.576c-12.288-1.024-23.552 3.072-32.768 11.264l-46.08 38.912c-18.432 16.384-20.48 45.056-4.096 64.512l84.992 88.064c12.288 14.336 30.72 23.552 50.176 24.576h5.12c17.408 0 34.816-6.144 48.128-18.432 29.696-26.624 32.768-71.68 6.144-102.4l-78.848-91.136c-9.216-9.216-20.48-14.336-32.768-15.36z m93.184 196.608c-11.264 10.24-25.6 14.336-40.96 14.336-15.36-1.024-28.672-7.168-38.912-19.456l-84.992-88.064c-10.24-12.288-9.216-30.72 2.048-40.96l46.08-38.912c5.12-5.12 12.288-7.168 19.456-7.168h2.048c8.192 0 15.36 4.096 20.48 10.24l78.848 91.136c21.504 23.552 19.456 58.368-4.096 78.848z" fill="#3B0005" p-id="2290"></path><path d="M449.536 516.096c-5.12 41.984-2.048 60.416-1.024 65.536C531.456 662.528 614.4 742.4 641.024 768c7.168 7.168 16.384 12.288 26.624 15.36 20.48 6.144 61.44 11.264 96.256-16.384 21.504-17.408 32.768-36.864 34.816-60.416 3.072-43.008-29.696-86.016-50.176-108.544-26.624-28.672-115.712-131.072-183.296-208.896-43.008 26.624-109.568 81.92-115.712 126.976z m191.488 20.48c12.288 1.024 23.552 6.144 31.744 15.36l78.848 91.136c26.624 29.696 23.552 75.776-6.144 102.4-13.312 11.264-29.696 18.432-48.128 18.432h-5.12c-19.456-1.024-36.864-10.24-50.176-24.576l-84.992-88.064c-17.408-19.456-15.36-48.128 4.096-64.512l46.08-38.912c10.24-8.192 22.528-12.288 33.792-11.264z" fill="#FFE71E" p-id="2291"></path><path d="M655.36 728.064c10.24 11.264 23.552 18.432 38.912 19.456 14.336 1.024 29.696-4.096 40.96-14.336 23.552-20.48 25.6-55.296 5.12-78.848L660.48 563.2c-5.12-6.144-12.288-9.216-20.48-10.24h-2.048c-7.168 0-14.336 2.048-19.456 7.168l-46.08 38.912c-12.288 10.24-13.312 28.672-2.048 40.96l84.992 88.064z" fill="#FFE71E" p-id="2292"></path><path d="M774.144 779.264c-23.552 19.456-50.176 25.6-72.704 25.6-15.36 0-28.672-3.072-38.912-5.12-12.288-3.072-23.552-10.24-33.792-19.456-52.224-50.176-314.368-303.104-376.832-367.616-21.504-21.504-36.864-46.08-45.056-70.656v5.12c1.024 28.672 17.408 61.44 46.08 90.112 66.56 68.608 362.496 356.352 365.568 359.424 2.048 2.048 67.584 58.368 137.216 11.264 20.48-14.336 33.792-32.768 39.936-53.248-4.096 9.216-12.288 17.408-21.504 24.576z" fill="#FFFFFF" p-id="2293"></path><path d="M580.608 380.928c16.384 18.432 32.768 38.912 50.176 58.368 2.048-22.528 4.096-54.272-3.072-67.584-4.096-6.144-26.624-1.024-40.96 6.144l-6.144 3.072zM265.216 401.408l4.096 4.096c0-25.6 8.192-67.584 53.248-97.28 20.48-13.312 38.912-25.6 56.32-35.84 19.456-12.288 35.84-23.552 49.152-31.744-24.576-15.36-55.296-27.648-93.184-27.648-11.264 0-23.552 1.024-36.864 4.096-40.96 8.192-66.56 27.648-75.776 57.344-13.312 36.864 4.096 87.04 43.008 126.976z" fill="#FFE71E" p-id="2294"></path><path d="M330.752 321.536c-55.296 35.84-46.08 91.136-44.032 101.376 33.792 33.792 87.04 86.016 143.36 140.288 0-11.264 0-27.648 3.072-50.176 7.168-57.344 92.16-121.856 135.168-145.408h1.024c4.096-2.048 8.192-4.096 11.264-5.12 4.096-2.048 17.408-8.192 31.744-9.216-28.672-26.624-86.016-70.656-125.952-100.352-17.408-12.288-38.912-7.168-44.032-4.096-12.288 9.216-32.768 21.504-55.296 35.84-17.408 11.264-36.864 23.552-56.32 36.864z m179.2-28.672c13.312 10.24 20.48 23.552 21.504 37.888 2.048 16.384-5.12 33.792-18.432 51.2-15.36 18.432-40.96 28.672-64.512 28.672-15.36 0-30.72-4.096-41.984-13.312-14.336-11.264-23.552-28.672-24.576-48.128-1.024-19.456 5.12-36.864 18.432-51.2 30.72-30.72 81.92-27.648 109.568-5.12z" fill="#FFE71E" p-id="2295"></path><path d="M500.736 371.712c11.264-13.312 16.384-26.624 15.36-38.912-1.024-10.24-6.144-19.456-16.384-27.648-10.24-9.216-26.624-13.312-41.984-13.312-16.384 0-32.768 5.12-45.056 17.408-10.24 10.24-15.36 24.576-14.336 38.912 1.024 14.336 7.168 27.648 18.432 35.84 22.528 18.432 63.488 12.288 83.968-12.288z" fill="#F4EEEB" p-id="2296"></path><path d="M565.248 389.12c-43.008 26.624-110.592 81.92-115.712 126.976-5.12 41.984-2.048 60.416-1.024 65.536 16.384 15.36 8.192 8.192 24.576 23.552l166.912-130.048c-30.72-34.816-45.056-52.224-74.752-86.016z" fill="#F4D314" p-id="2297"></path></svg>