<?xml version="1.0" standalone="no"?><!DOCTYPE svg PUBLIC "-//W3C//DTD SVG 1.1//EN" "http://www.w3.org/Graphics/SVG/1.1/DTD/svg11.dtd"><svg t="1584780987331" class="icon" viewBox="0 0 1024 1024" version="1.1" xmlns="http://www.w3.org/2000/svg" p-id="1835" xmlns:xlink="http://www.w3.org/1999/xlink" width="32" height="32"><defs><style type="text/css"></style></defs><path d="M856.064 458.752c-1.024-39.936-28.672-65.536-55.296-90.112-20.48-19.456-40.96-37.888-45.056-61.44-5.12-27.648-10.24-54.272-15.36-75.776v-1.024c-5.12-22.528-9.216-36.864-9.216-37.888-4.096-16.384-24.576-24.576-58.368-25.6-30.72-1.024-69.632 4.096-108.544 15.36-39.936 10.24-75.776 25.6-101.376 41.984-28.672 18.432-41.984 35.84-37.888 52.224 0 1.024 0 1.024 1.024 2.048v1.024c1.024 1.024 1.024 3.072 2.048 4.096 10.24 21.504 48.128 112.64 19.456 181.248-34.816 83.968-116.736 196.608-173.056 235.52-44.032 30.72-87.04 63.488-89.088 100.352-1.024 17.408 8.192 34.816 27.648 50.176 31.744 25.6 83.968 38.912 138.24 38.912 50.176 0 103.424-11.264 141.312-33.792 32.768-19.456 49.152-41.984 69.632-70.656 24.576-33.792 55.296-76.8 126.976-131.072 28.672-21.504 52.224-38.912 71.68-53.248 72.704-55.296 98.304-73.728 95.232-142.336z" fill="#F2EDEC" p-id="1836"></path><path d="M840.704 429.056c-1.024-39.936-28.672-65.536-55.296-90.112-20.48-19.456-40.96-37.888-45.056-61.44-5.12-27.648-10.24-54.272-15.36-75.776v-1.024c-5.12-22.528-9.216-36.864-9.216-37.888-4.096-16.384-24.576-24.576-58.368-25.6-30.72-1.024-69.632 4.096-108.544 15.36-39.936 10.24-75.776 25.6-101.376 41.984-28.672 18.432-41.984 35.84-37.888 52.224 0 1.024 0 1.024 1.024 2.048v1.024c1.024 1.024 1.024 3.072 2.048 4.096 10.24 21.504 48.128 112.64 19.456 181.248-34.816 83.968-116.736 196.608-173.056 235.52-44.032 30.72-87.04 63.488-89.088 100.352-1.024 17.408 8.192 34.816 27.648 50.176 31.744 25.6 83.968 38.912 138.24 38.912 50.176 0 103.424-11.264 141.312-33.792 32.768-19.456 49.152-41.984 69.632-70.656 24.576-33.792 55.296-76.8 126.976-131.072 28.672-21.504 52.224-38.912 71.68-53.248 72.704-55.296 97.28-72.704 95.232-142.336zM678.912 237.568C654.336 252.928 620.544 266.24 583.68 276.48c-81.92 22.528-139.264 15.36-143.36 1.024h-2.048c-1.024-4.096-2.048-7.168-4.096-10.24 8.192 2.048 19.456 4.096 31.744 4.096h7.168c29.696 0 65.536-5.12 101.376-15.36 39.936-10.24 75.776-25.6 101.376-41.984 12.288-8.192 21.504-15.36 28.672-23.552 1.024 4.096 2.048 8.192 3.072 13.312 2.048 8.192-6.144 19.456-28.672 33.792z m-225.28-29.696c24.576-15.36 59.392-29.696 97.28-39.936 34.816-9.216 69.632-14.336 97.28-14.336h7.168c29.696 1.024 41.984 8.192 44.032 14.336 2.048 6.144-5.12 18.432-30.72 33.792-24.576 15.36-59.392 29.696-97.28 39.936s-75.776 15.36-104.448 14.336c-25.6-1.024-37.888-6.144-41.984-11.264-1.024-1.024-1.024-2.048-1.024-3.072-2.048-6.144 5.12-18.432 29.696-33.792z m-9.216 231.424c6.144-15.36 9.216-30.72 11.264-46.08 41.984 5.12 73.728 40.96 73.728 83.968 0 47.104-37.888 84.992-84.992 84.992-20.48 0-39.936-7.168-55.296-20.48 22.528-34.816 43.008-69.632 55.296-102.4zM205.824 806.912c-14.336-12.288-21.504-23.552-21.504-36.864 1.024-21.504 23.552-44.032 50.176-65.536 59.392 0 205.824 11.264 224.256 56.32 10.24 24.576 10.24 28.672 13.312 44.032v1.024c-2.048 1.024-3.072 2.048-5.12 3.072-80.896 48.128-210.944 38.912-261.12-2.048z m528.384-250.88c-19.456 14.336-44.032 31.744-72.704 53.248-73.728 56.32-104.448 99.328-130.048 134.144-14.336 20.48-27.648 37.888-45.056 52.224-2.048-11.264-4.096-18.432-13.312-40.96-21.504-53.248-159.744-64.512-218.112-66.56 3.072-2.048 6.144-5.12 10.24-7.168 33.792-23.552 76.8-72.704 113.664-126.976 18.432 15.36 40.96 23.552 64.512 23.552 55.296 0 101.376-45.056 101.376-101.376 0-52.224-38.912-94.208-89.088-100.352 0-26.624-5.12-53.248-11.264-75.776 11.264 4.096 25.6 6.144 43.008 6.144 28.672 0 64.512-5.12 99.328-14.336 38.912-10.24 73.728-24.576 99.328-40.96 12.288-7.168 20.48-14.336 27.648-21.504 3.072 15.36 7.168 32.768 10.24 50.176 5.12 29.696 27.648 50.176 50.176 70.656 1.024 1.024 2.048 2.048 3.072 2.048-15.36 10.24-45.056 34.816-55.296 74.752-9.216 35.84 1.024 74.752 28.672 116.736-6.144 4.096-10.24 8.192-16.384 12.288z m28.672-21.504c-24.576-36.864-33.792-71.68-25.6-102.4 9.216-36.864 39.936-59.392 51.2-67.584 18.432 18.432 33.792 37.888 34.816 64.512 3.072 52.224-11.264 69.632-60.416 105.472z" fill="#3B0005" p-id="1837"></path><path d="M458.752 760.832c-18.432-45.056-165.888-56.32-224.256-56.32-26.624 21.504-49.152 43.008-50.176 65.536 0 12.288 6.144 24.576 21.504 36.864 50.176 40.96 181.248 50.176 261.12 3.072 2.048-1.024 4.096-2.048 5.12-3.072v-1.024c-2.048-16.384-3.072-20.48-13.312-45.056zM737.28 432.128c-7.168 30.72 1.024 65.536 25.6 102.4 49.152-35.84 62.464-54.272 60.416-105.472-1.024-26.624-16.384-46.08-34.816-64.512-11.264 8.192-41.984 30.72-51.2 67.584zM529.408 478.208c0-43.008-31.744-78.848-73.728-83.968-1.024 15.36-5.12 31.744-11.264 46.08-13.312 31.744-32.768 67.584-55.296 102.4 15.36 13.312 34.816 20.48 55.296 20.48 47.104-1.024 84.992-38.912 84.992-84.992z" fill="#FFFFFF" p-id="1838"></path><path d="M422.912 241.664c0 1.024 1.024 2.048 1.024 3.072 4.096 5.12 16.384 10.24 41.984 11.264 28.672 1.024 65.536-4.096 104.448-14.336 37.888-10.24 72.704-24.576 97.28-39.936 25.6-15.36 31.744-27.648 30.72-33.792-2.048-6.144-14.336-13.312-44.032-14.336h-7.168c-27.648 0-62.464 5.12-97.28 14.336-37.888 10.24-72.704 24.576-97.28 39.936-23.552 15.36-30.72 27.648-29.696 33.792z" fill="#F4EEEB" p-id="1839"></path><path d="M575.488 257.024c-36.864 10.24-72.704 15.36-101.376 15.36h-7.168c-12.288 0-23.552-2.048-31.744-4.096 1.024 3.072 2.048 6.144 4.096 10.24h2.048c4.096 14.336 61.44 21.504 143.36-1.024 36.864-10.24 70.656-23.552 95.232-38.912 22.528-14.336 31.744-25.6 30.72-31.744-1.024-5.12-2.048-9.216-3.072-13.312-6.144 7.168-15.36 15.36-28.672 23.552-27.648 14.336-63.488 28.672-103.424 39.936z" fill="#FFFFFF" p-id="1840"></path><path d="M587.776 292.864c-34.816 9.216-69.632 14.336-99.328 14.336-17.408 0-31.744-2.048-43.008-6.144 6.144 22.528 11.264 49.152 11.264 75.776 51.2 6.144 89.088 48.128 89.088 100.352 0 55.296-45.056 101.376-101.376 101.376-23.552 0-47.104-8.192-64.512-23.552-36.864 54.272-79.872 103.424-113.664 126.976-3.072 2.048-6.144 4.096-10.24 7.168 58.368 2.048 196.608 12.288 218.112 66.56 9.216 22.528 11.264 28.672 13.312 40.96 17.408-14.336 29.696-31.744 45.056-52.224 25.6-34.816 56.32-77.824 130.048-134.144 28.672-21.504 53.248-38.912 72.704-53.248 5.12-4.096 10.24-7.168 15.36-11.264-27.648-40.96-36.864-80.896-28.672-116.736 10.24-39.936 39.936-64.512 55.296-74.752-1.024-1.024-2.048-2.048-3.072-2.048-21.504-20.48-45.056-41.984-50.176-70.656-3.072-17.408-6.144-34.816-10.24-50.176-6.144 7.168-15.36 14.336-27.648 21.504-24.576 14.336-59.392 28.672-98.304 39.936z" fill="#2ABC88" p-id="1841"></path><path d="M723.968 279.552c-3.072-17.408-6.144-34.816-10.24-50.176-6.144 7.168-15.36 14.336-27.648 21.504-14.336 9.216-21.504 13.312-40.96 20.48 10.24 56.32 71.68 116.736 34.816 205.824-20.48 50.176-174.08 186.368-226.304 253.952 9.216 6.144 15.36 14.336 19.456 23.552 9.216 22.528 11.264 28.672 13.312 40.96 17.408-14.336 29.696-31.744 45.056-52.224 25.6-34.816 56.32-77.824 130.048-134.144 28.672-21.504 53.248-38.912 72.704-53.248 5.12-4.096 10.24-7.168 15.36-11.264-27.648-40.96-36.864-80.896-28.672-116.736 10.24-39.936 39.936-64.512 55.296-74.752-1.024-1.024-2.048-2.048-3.072-2.048-21.504-20.48-44.032-41.984-49.152-71.68z" fill="#27AF7B" p-id="1842"></path></svg>