<?xml version="1.0" standalone="no"?><!DOCTYPE svg PUBLIC "-//W3C//DTD SVG 1.1//EN" "http://www.w3.org/Graphics/SVG/1.1/DTD/svg11.dtd"><svg t="1584781028291" class="icon" viewBox="0 0 1024 1024" version="1.1" xmlns="http://www.w3.org/2000/svg" p-id="2903" xmlns:xlink="http://www.w3.org/1999/xlink" width="32" height="32"><defs><style type="text/css"></style></defs><path d="M849.92 735.232v-2.048-1.024c-2.048-10.24-1.024-21.504 0-33.792 1.024-12.288 2.048-25.6 0-38.912-1.024-13.312-5.12-26.624-8.192-39.936-3.072-12.288-6.144-24.576-8.192-36.864-1.024-11.264-1.024-18.432 0-26.624 1.024-13.312 2.048-28.672-4.096-62.464-5.12-27.648-9.216-41.984-13.312-54.272-2.048-8.192-5.12-14.336-6.144-23.552-2.048-11.264-4.096-21.504-7.168-30.72-30.72-121.856-119.808-151.552-131.072-154.624l-15.36-64.512c-1.024-3.072-3.072-4.096-5.12-5.12-16.384-20.48-73.728-30.72-128-30.72s-112.64 10.24-129.024 30.72c-2.048 1.024-3.072 3.072-4.096 5.12l-16.384 65.536c-20.48 7.168-99.328 40.96-126.976 153.6-2.048 9.216-4.096 19.456-7.168 30.72-2.048 8.192-4.096 15.36-6.144 23.552-4.096 12.288-8.192 26.624-13.312 54.272-6.144 34.816-5.12 49.152-5.12 62.464 0 8.192 1.024 15.36 0 26.624-1.024 12.288-5.12 24.576-8.192 36.864-3.072 13.312-6.144 26.624-8.192 39.936-1.024 13.312 0 26.624 0 38.912 1.024 12.288 1.024 23.552 0 33.792V735.232c-10.24 53.248-7.168 88.064-7.168 89.088 0 1.024 0 2.048 1.024 3.072 1.024 1.024 13.312 26.624 53.248 33.792 5.12 1.024 9.216 1.024 14.336 1.024 32.768 0 56.32-18.432 57.344-19.456 2.048-1.024 3.072-3.072 3.072-5.12v-2.048l5.12 16.384c12.288 37.888 79.872 58.368 194.56 58.368h4.096c161.792-1.024 192.512-40.96 198.656-59.392l5.12-15.36v1.024c0 2.048 1.024 4.096 3.072 5.12 1.024 1.024 24.576 19.456 57.344 19.456 4.096 0 9.216 0 14.336-1.024 39.936-7.168 53.248-32.768 53.248-33.792 0-1.024 1.024-2.048 1.024-3.072 1.024-1.024 4.096-34.816-7.168-88.064z" fill="#F2EDEC" p-id="2904"></path><path d="M824.32 718.848V716.8v-1.024c-2.048-10.24-1.024-21.504 0-33.792 1.024-12.288 2.048-25.6 0-38.912-1.024-13.312-5.12-26.624-8.192-39.936-3.072-12.288-6.144-24.576-8.192-36.864-1.024-11.264-1.024-18.432 0-26.624 1.024-13.312 2.048-28.672-4.096-62.464-5.12-27.648-9.216-41.984-13.312-54.272-2.048-8.192-5.12-14.336-6.144-23.552-2.048-11.264-4.096-21.504-7.168-30.72C747.52 247.808 657.408 218.112 646.144 215.04l-15.36-64.512c-1.024-3.072-3.072-4.096-5.12-5.12-16.384-20.48-73.728-30.72-128-30.72s-112.64 10.24-129.024 30.72c-2.048 1.024-3.072 3.072-4.096 5.12L348.16 216.064c-20.48 7.168-99.328 40.96-126.976 153.6-2.048 9.216-4.096 19.456-7.168 30.72-2.048 8.192-4.096 15.36-6.144 23.552-4.096 12.288-8.192 26.624-13.312 54.272-6.144 34.816-5.12 49.152-4.096 62.464 0 8.192 1.024 15.36 0 26.624-1.024 12.288-5.12 24.576-8.192 36.864-3.072 13.312-6.144 26.624-8.192 39.936-1.024 13.312 0 26.624 0 38.912 1.024 12.288 1.024 23.552 0 33.792V719.872c-10.24 53.248-7.168 88.064-7.168 89.088 0 1.024 0 2.048 1.024 3.072 1.024 1.024 13.312 26.624 53.248 33.792 5.12 1.024 9.216 1.024 14.336 1.024 32.768 0 56.32-18.432 57.344-19.456 2.048-1.024 3.072-3.072 3.072-5.12v-2.048l5.12 16.384c12.288 37.888 79.872 58.368 194.56 58.368h4.096c161.792-1.024 192.512-40.96 198.656-59.392l5.12-15.36v1.024c0 2.048 1.024 4.096 3.072 5.12 1.024 1.024 24.576 19.456 57.344 19.456 4.096 0 9.216 0 14.336-1.024 39.936-7.168 53.248-32.768 53.248-33.792 0-1.024 1.024-2.048 1.024-3.072 0-2.048 3.072-36.864-8.192-89.088z m-16.384-74.752c1.024 12.288 0 24.576 0 35.84-1.024 11.264-1.024 22.528 0 32.768-11.264 7.168-46.08 23.552-95.232 16.384v-5.12-4.096l-10.24-125.952h11.264c39.936 0 68.608-11.264 80.896-16.384 2.048 10.24 4.096 19.456 6.144 28.672 3.072 14.336 6.144 26.624 7.168 37.888zM497.664 184.32c-40.96 0-73.728-6.144-93.184-12.288 20.48-7.168 52.224-11.264 93.184-11.264 35.84 0 69.632 4.096 92.16 12.288-20.48 5.12-52.224 11.264-92.16 11.264z m180.224 285.696l6.144 99.328c-17.408 3.072-87.04 15.36-177.152 16.384V424.96c84.992-1.024 151.552-11.264 174.08-15.36-3.072 20.48-4.096 40.96-3.072 60.416zM491.52 585.728c-90.112 0-157.696-12.288-177.152-16.384l6.144-91.136c2.048-23.552 0-47.104-6.144-69.632h1.024c3.072 1.024 69.632 15.36 176.128 15.36v161.792z m-179.2 0c23.552 4.096 90.112 16.384 178.176 16.384v146.432c-98.304-1.024-168.96-24.576-187.392-30.72l9.216-132.096z m195.584 16.384c88.064-1.024 157.696-13.312 178.176-16.384l9.216 133.12c-21.504 7.168-95.232 28.672-187.392 30.72V602.112z m279.552-121.856c6.144 32.768 5.12 46.08 4.096 59.392 0 7.168-1.024 13.312 0 21.504 0 0-35.84 20.48-90.112 17.408l-7.168-108.544c-1.024-15.36 0-29.696 2.048-45.056 40.96-2.048 63.488-9.216 73.728-13.312 1.024 6.144 3.072 11.264 5.12 16.384 4.096 12.288 8.192 25.6 12.288 52.224z m-20.48-86.016c-5.12 2.048-24.576 10.24-67.584 13.312 3.072-12.288 6.144-24.576 10.24-35.84l24.576-63.488c11.264 17.408 20.48 38.912 26.624 65.536 2.048 5.12 4.096 13.312 6.144 20.48z m-41.984-101.376c-1.024 1.024-3.072 2.048-3.072 4.096l-26.624 68.608c-3.072 9.216-6.144 17.408-8.192 26.624-12.288 2.048-81.92 15.36-178.176 16.384V277.504c66.56-1.024 124.928-23.552 137.216-46.08 11.264 4.096 48.128 20.48 78.848 61.44z m-93.184-70.656c-3.072 10.24-51.2 37.888-123.904 38.912v-60.416c41.984-1.024 83.968-8.192 106.496-21.504 2.048-1.024 4.096-2.048 5.12-4.096l12.288 47.104z m-134.144-92.16c72.704 0 116.736 17.408 116.736 26.624 0 2.048-1.024 4.096-4.096 5.12-23.552-11.264-65.536-19.456-112.64-19.456-37.888 0-87.04 3.072-112.64 18.432-2.048-2.048-4.096-4.096-4.096-5.12 0-8.192 44.032-25.6 116.736-25.6z m-122.88 46.08c21.504 16.384 68.608 23.552 115.712 24.576v60.416c-70.656-3.072-123.904-28.672-128-37.888l12.288-47.104z m-24.576 56.32c16.384 21.504 79.872 41.984 140.288 45.056v131.072c-104.448-1.024-172.032-15.36-172.032-15.36-3.072-1.024-6.144 1.024-8.192 3.072-3.072-13.312-7.168-25.6-13.312-37.888l-27.648-59.392c29.696-44.032 66.56-61.44 80.896-66.56z m-91.136 83.968l23.552 50.176c6.144 13.312 11.264 27.648 15.36 41.984-40.96-3.072-60.416-10.24-65.536-12.288 2.048-8.192 3.072-15.36 5.12-21.504 5.12-23.552 12.288-43.008 21.504-58.368z m-48.128 163.84c5.12-26.624 9.216-39.936 13.312-52.224 2.048-5.12 3.072-11.264 5.12-16.384 10.24 4.096 31.744 11.264 72.704 13.312 3.072 17.408 4.096 35.84 3.072 54.272l-8.192 98.304c-54.272 3.072-90.112-16.384-90.112-17.408 1.024-8.192 0-15.36 0-21.504-1.024-13.312-2.048-26.624 4.096-58.368z m-20.48 163.84c1.024-12.288 4.096-24.576 7.168-36.864 2.048-9.216 5.12-19.456 6.144-29.696 12.288 5.12 40.96 16.384 80.896 16.384 3.072 0 7.168 0 11.264-1.024L286.72 730.112c-49.152 7.168-83.968-10.24-96.256-16.384 1.024-10.24 0-21.504 0-32.768-1.024-12.288-1.024-24.576 0-36.864z m32.768 183.296c-26.624-4.096-37.888-19.456-40.96-23.552 0-7.168-1.024-33.792 6.144-73.728 13.312 7.168 39.936 17.408 74.752 17.408 7.168 0 15.36-1.024 23.552-2.048l-1.024 21.504-5.12 46.08c-9.216 7.168-30.72 19.456-57.344 14.336z m93.184 2.048l-12.288-37.888c-2.048-7.168-3.072-14.336-3.072-22.528l2.048-34.816c24.576 8.192 94.208 29.696 188.416 30.72v111.616c-144.384 0-171.008-32.768-175.104-47.104z m378.88-37.888L683.008 829.44c-2.048 5.12-19.456 46.08-175.104 48.128v-112.64c90.112-2.048 161.792-21.504 188.416-29.696l2.048 33.792v2.048c0 7.168-1.024 14.336-3.072 20.48z m120.832 12.288c-3.072 4.096-14.336 19.456-40.96 23.552-25.6 4.096-48.128-8.192-56.32-12.288l-5.12-45.056V768l-1.024-20.48c8.192 1.024 15.36 2.048 22.528 2.048 34.816 0 60.416-10.24 74.752-17.408 7.168 37.888 6.144 65.536 6.144 71.68z" fill="#3B0005" p-id="2905"></path><path d="M350.208 232.448c-14.336 5.12-52.224 22.528-81.92 67.584L296.96 358.4c6.144 12.288 10.24 24.576 14.336 36.864 2.048-2.048 5.12-3.072 8.192-3.072 1.024 0 67.584 14.336 172.032 15.36V277.504c-60.416-3.072-124.928-23.552-141.312-45.056zM507.904 424.96v160.768c90.112-1.024 160.768-13.312 177.152-16.384l-6.144-99.328c-1.024-20.48 0-39.936 4.096-60.416-24.576 4.096-90.112 14.336-175.104 15.36zM314.368 408.576c5.12 22.528 7.168 46.08 6.144 69.632l-6.144 91.136c19.456 4.096 87.04 16.384 177.152 16.384V424.96C385.024 423.936 318.464 409.6 315.392 409.6c-1.024 0-1.024-1.024-1.024-1.024z" fill="#FFE71E" p-id="2906"></path><path d="M497.664 159.744c-40.96 0-73.728 4.096-93.184 11.264 20.48 6.144 52.224 12.288 93.184 12.288s72.704-5.12 92.16-12.288c-22.528-6.144-56.32-11.264-92.16-11.264z" fill="#F4EEEB" p-id="2907"></path><path d="M304.128 717.824c17.408 6.144 89.088 30.72 187.392 30.72V602.112c-88.064 0-155.648-11.264-178.176-16.384l-9.216 132.096zM282.624 365.568l-23.552-50.176c-8.192 16.384-16.384 34.816-21.504 56.32-2.048 6.144-3.072 14.336-5.12 21.504 5.12 2.048 24.576 10.24 65.536 12.288-4.096-12.288-9.216-26.624-15.36-39.936zM188.416 731.136c-7.168 38.912-6.144 66.56-6.144 73.728 3.072 4.096 13.312 19.456 40.96 23.552 26.624 4.096 48.128-8.192 56.32-12.288l5.12-46.08 1.024-21.504c-8.192 1.024-15.36 2.048-23.552 2.048-34.816-2.048-60.416-12.288-73.728-19.456zM301.056 423.936c-39.936-2.048-62.464-9.216-72.704-13.312-1.024 6.144-3.072 11.264-5.12 16.384-4.096 12.288-8.192 25.6-13.312 52.224-6.144 32.768-5.12 46.08-4.096 59.392 0 7.168 1.024 13.312 0 21.504 0 0 35.84 20.48 90.112 17.408l6.144-100.352c3.072-17.408 2.048-35.84-1.024-53.248zM204.8 577.536c-2.048 10.24-4.096 19.456-6.144 29.696-3.072 13.312-6.144 25.6-7.168 36.864-1.024 12.288 0 24.576 0 35.84 1.024 11.264 1.024 22.528 0 32.768 11.264 7.168 46.08 23.552 96.256 16.384l8.192-135.168c-4.096 0-7.168 1.024-11.264 1.024-39.936 0-68.608-11.264-79.872-17.408zM301.056 770.048c0 7.168 1.024 15.36 3.072 22.528l12.288 37.888c5.12 14.336 30.72 47.104 175.104 48.128V764.928c-94.208 0-163.84-21.504-188.416-30.72l-2.048 35.84zM695.296 735.232c-26.624 8.192-98.304 28.672-188.416 29.696v111.616c155.648-2.048 173.056-43.008 175.104-48.128l12.288-37.888c2.048-7.168 3.072-13.312 3.072-20.48v-1.024-1.024l-2.048-32.768z" fill="#FFE71E" p-id="2908"></path><path d="M384 162.816c25.6-15.36 75.776-18.432 112.64-18.432 47.104 0 89.088 7.168 112.64 19.456 3.072-2.048 4.096-4.096 4.096-5.12 0-9.216-44.032-26.624-116.736-26.624s-116.736 17.408-116.736 26.624c1.024 0 2.048 2.048 4.096 4.096z" fill="#F4EEEB" p-id="2909"></path><path d="M507.904 261.12c72.704-1.024 120.832-28.672 123.904-38.912l-11.264-47.104c-2.048 1.024-3.072 2.048-5.12 4.096-22.528 13.312-64.512 20.48-106.496 21.504v60.416zM363.52 222.208c4.096 9.216 57.344 35.84 128 37.888v-60.416c-47.104-1.024-95.232-8.192-115.712-24.576l-12.288 47.104z" fill="#FFE71E" p-id="2910"></path><path d="M507.904 408.576c96.256-1.024 165.888-13.312 178.176-16.384 3.072-9.216 5.12-16.384 8.192-26.624l26.624-68.608c1.024-2.048 2.048-3.072 3.072-4.096-30.72-40.96-67.584-57.344-79.872-61.44-13.312 22.528-70.656 45.056-137.216 46.08v131.072zM809.984 731.136c-13.312 7.168-39.936 17.408-74.752 17.408-7.168 0-15.36-1.024-22.528-2.048l1.024 21.504v2.048l5.12 45.056c7.168 5.12 29.696 17.408 56.32 12.288 26.624-4.096 37.888-19.456 40.96-23.552 0-6.144 1.024-33.792-6.144-72.704zM507.904 748.544c92.16-2.048 165.888-23.552 187.392-30.72l-9.216-133.12c-20.48 4.096-90.112 15.36-178.176 16.384v147.456zM807.936 713.728c-1.024-10.24 0-21.504 0-32.768 1.024-12.288 2.048-24.576 0-35.84-1.024-12.288-4.096-24.576-7.168-36.864-2.048-9.216-5.12-19.456-6.144-28.672-12.288 5.12-40.96 16.384-80.896 16.384h-11.264l8.192 126.976c1.024 1.024 0 3.072 0 4.096v5.12c50.176 5.12 84.992-11.264 97.28-18.432zM791.552 561.152v-21.504c1.024-13.312 2.048-26.624-4.096-59.392-5.12-26.624-9.216-39.936-13.312-52.224-2.048-5.12-3.072-11.264-5.12-16.384-10.24 4.096-32.768 11.264-73.728 13.312-2.048 15.36-3.072 29.696-2.048 45.056l7.168 108.544c55.296 2.048 91.136-17.408 91.136-17.408zM699.392 407.552c43.008-3.072 62.464-10.24 67.584-13.312-2.048-8.192-3.072-15.36-5.12-21.504-6.144-25.6-16.384-47.104-26.624-65.536l-24.576 63.488c-5.12 12.288-9.216 24.576-11.264 36.864z" fill="#FFE71E" p-id="2911"></path><path d="M677.888 470.016c-1.024-20.48 0-39.936 4.096-60.416l-10.24 2.048-9.216 32.768c0-3.072-3.072 48.128 4.096 128 8.192-1.024 15.36-3.072 18.432-3.072l-7.168-99.328zM491.52 876.544v-31.744c-70.656-4.096-151.552-10.24-183.296-41.984l8.192 25.6c4.096 15.36 30.72 48.128 175.104 48.128zM683.008 829.44l12.288-37.888c2.048-7.168 3.072-13.312 3.072-20.48v-1.024-1.024l-2.048-33.792c-7.168 2.048-16.384 5.12-29.696 8.192-1.024 26.624 7.168 43.008-14.336 67.584-25.6 29.696-99.328 35.84-144.384 33.792v31.744c154.624-2.048 173.056-41.984 175.104-47.104zM712.704 747.52l1.024 21.504v2.048l5.12 45.056c4.096 3.072 13.312 8.192 24.576 11.264l-8.192-76.8c-6.144-2.048-14.336-2.048-22.528-3.072zM686.08 585.728c-4.096 1.024-11.264 2.048-19.456 3.072 1.024 46.08 1.024 95.232 1.024 137.216 12.288-3.072 22.528-6.144 27.648-8.192L686.08 585.728zM702.464 593.92l8.192 126.976c1.024 1.024 0 3.072 0 4.096v5.12c8.192 1.024 15.36 2.048 22.528 2.048l-14.336-137.216h-6.144c-2.048 0-6.144-1.024-10.24-1.024zM694.272 468.992l7.168 108.544h16.384l-16.384-154.624h-6.144c-1.024 16.384-2.048 31.744-1.024 46.08zM700.416 407.552v-4.096c0 1.024-1.024 3.072-1.024 4.096h1.024zM697.344 357.376L675.84 394.24l10.24-2.048z" fill="#F4D314" p-id="2912"></path></svg>