<?xml version="1.0" standalone="no"?><!DOCTYPE svg PUBLIC "-//W3C//DTD SVG 1.1//EN" "http://www.w3.org/Graphics/SVG/1.1/DTD/svg11.dtd"><svg t="1584780967029" class="icon" viewBox="0 0 1024 1024" version="1.1" xmlns="http://www.w3.org/2000/svg" p-id="1029" xmlns:xlink="http://www.w3.org/1999/xlink" width="32" height="32"><defs><style type="text/css"></style></defs><path d="M771.072 409.6c-31.744-56.32-53.248-163.84-60.416-207.872-3.072-15.36-15.36-27.648-30.72-29.696-12.288-2.048-23.552 3.072-31.744 11.264-3.072 3.072-5.12 7.168-6.144 11.264-28.672 38.912-109.568 142.336-152.576 148.48-45.056 7.168-157.696-60.416-196.608-87.04-2.048-2.048-5.12-5.12-8.192-6.144-10.24-5.12-23.552-5.12-33.792 0-14.336 7.168-21.504 22.528-18.432 38.912 8.192 44.032 27.648 152.576 17.408 216.064-11.264 75.776-22.528 147.456 31.744 230.4 43.008 66.56 51.2 80.896 52.224 82.944l13.312 45.056c0 2.048 2.048 6.144 6.144 9.216 6.144 4.096 15.36 6.144 28.672 6.144 10.24 0 23.552-1.024 37.888-4.096 61.44-12.288 160.768-29.696 161.792-29.696 1.024 0 101.376-19.456 161.792-29.696 33.792-6.144 54.272-14.336 61.44-25.6 3.072-5.12 3.072-9.216 3.072-11.264l-3.072-40.96v-6.144c0-3.072 3.072-19.456 19.456-96.256 20.48-95.232-15.36-158.72-53.248-225.28zM440.32 439.296c12.288 30.72 10.24 52.224-7.168 86.016-24.576-6.144-50.176-18.432-68.608-40.96-25.6-31.744-44.032-95.232-54.272-154.624 40.96 24.576 115.712 74.752 130.048 109.568zM651.264 266.24c11.264 59.392 17.408 125.952 4.096 164.864-9.216 27.648-28.672 48.128-50.176 62.464-28.672-24.576-37.888-45.056-37.888-77.824 1.024-36.864 54.272-111.616 83.968-149.504z" fill="#F2EDEC" p-id="1030"></path><path d="M787.456 608.256c20.48-96.256-15.36-159.744-53.248-226.304-31.744-56.32-53.248-163.84-60.416-207.872-3.072-15.36-15.36-27.648-30.72-29.696-12.288-2.048-23.552 3.072-31.744 11.264-3.072 3.072-5.12 7.168-6.144 11.264-28.672 38.912-109.568 142.336-152.576 148.48-45.056 7.168-157.696-60.416-196.608-87.04-2.048-2.048-5.12-5.12-8.192-6.144-10.24-5.12-23.552-5.12-33.792 0-14.336 7.168-21.504 22.528-18.432 38.912 8.192 44.032 27.648 152.576 17.408 216.064-11.264 75.776-22.528 147.456 31.744 230.4 43.008 66.56 51.2 80.896 52.224 82.944l13.312 45.056c0 2.048 2.048 6.144 6.144 9.216 6.144 4.096 15.36 6.144 28.672 6.144 10.24 0 23.552-1.024 37.888-4.096 61.44-12.288 160.768-29.696 161.792-29.696 1.024 0 101.376-19.456 161.792-29.696 33.792-6.144 54.272-14.336 61.44-25.6 3.072-5.12 3.072-9.216 3.072-11.264l-3.072-40.96v-6.144c0-2.048 3.072-18.432 19.456-95.232z m-219.136-143.36c-28.672-24.576-37.888-45.056-37.888-77.824 1.024-36.864 53.248-111.616 82.944-149.504 11.264 59.392 17.408 125.952 4.096 164.864-8.192 27.648-27.648 48.128-49.152 62.464z m-122.88-132.096c3.072 0 6.144 0 9.216-1.024 46.08-7.168 119.808-98.304 149.504-137.216 2.048 7.168 4.096 15.36 5.12 23.552-10.24 13.312-94.208 116.736-95.232 169.984-1.024 36.864 10.24 60.416 39.936 87.04-23.552 13.312-46.08 20.48-58.368 23.552l-18.432 3.072c-13.312 1.024-36.864 3.072-63.488-1.024 18.432-35.84 19.456-61.44 6.144-95.232-20.48-49.152-132.096-114.688-149.504-124.928-1.024-8.192-2.048-17.408-3.072-25.6 38.912 25.6 128 77.824 178.176 77.824z m55.296 181.248l17.408 92.16c0 2.048 0 4.096-1.024 5.12-1.024 1.024-3.072 2.048-4.096 3.072-4.096 1.024-7.168-2.048-8.192-5.12l-17.408-92.16h2.048c1.024-1.024 5.12-2.048 11.264-3.072z m-104.448-17.408c-24.576-6.144-50.176-18.432-68.608-40.96-25.6-31.744-44.032-95.232-54.272-154.624 40.96 24.576 116.736 74.752 130.048 108.544 12.288 31.744 11.264 54.272-7.168 87.04z m-167.936-16.384c10.24-66.56-9.216-177.152-18.432-222.208-2.048-8.192 2.048-16.384 10.24-21.504 6.144-3.072 12.288-3.072 18.432 0 6.144 3.072 10.24 8.192 10.24 15.36 8.192 71.68 30.72 169.984 65.536 214.016 44.032 54.272 120.832 54.272 155.648 52.224l17.408 93.184c2.048 11.264 12.288 19.456 22.528 19.456h4.096c6.144-1.024 11.264-4.096 15.36-9.216 3.072-5.12 5.12-11.264 4.096-17.408l-17.408-94.208c35.84-12.288 97.28-40.96 117.76-101.376 17.408-53.248 4.096-150.528-15.36-223.232-2.048-6.144 0-13.312 4.096-18.432s10.24-7.168 17.408-6.144c8.192 1.024 15.36 7.168 16.384 16.384 9.216 55.296 30.72 156.672 62.464 212.992 44.032 77.824 69.632 131.072 51.2 215.04-18.432 87.04-19.456 98.304-19.456 100.352v3.072c-5.12 3.072-21.504 10.24-63.488 18.432l-296.96 55.296c-52.224 9.216-75.776 3.072-81.92 1.024-4.096-7.168-15.36-26.624-52.224-82.944-45.056-72.704-40.96-132.096-27.648-220.16z m476.16 291.84c-60.416 10.24-159.744 29.696-161.792 29.696-3.072 0-101.376 18.432-161.792 29.696-43.008 8.192-53.248 1.024-54.272 0l-9.216-31.744c6.144 1.024 14.336 2.048 24.576 2.048 13.312 0 31.744-1.024 53.248-5.12l296.96-55.296c32.768-6.144 51.2-12.288 61.44-17.408l2.048 27.648c-1.024 3.072-8.192 13.312-51.2 20.48z" fill="#3B0005" p-id="1031"></path><path d="M487.424 516.096l17.408 92.16c1.024 4.096 4.096 6.144 8.192 5.12 2.048 0 3.072-1.024 4.096-3.072 1.024-1.024 1.024-3.072 1.024-5.12l-17.408-92.16h-1.024c-6.144 2.048-10.24 2.048-10.24 2.048 0 1.024-1.024 1.024-2.048 1.024z" fill="#FFFFFF" p-id="1032"></path><path d="M418.816 404.48c13.312 33.792 12.288 60.416-6.144 95.232 26.624 4.096 51.2 3.072 63.488 1.024l18.432-3.072c12.288-3.072 35.84-10.24 58.368-23.552-29.696-26.624-39.936-50.176-39.936-87.04 1.024-53.248 84.992-156.672 95.232-169.984-2.048-8.192-3.072-15.36-5.12-23.552-30.72 39.936-103.424 130.048-150.528 137.216-3.072 0-6.144 1.024-9.216 1.024-50.176 0-138.24-51.2-179.2-76.8 1.024 8.192 2.048 16.384 3.072 25.6 20.48 10.24 132.096 75.776 151.552 123.904z" fill="#F20000" p-id="1033"></path><path d="M691.2 742.4l-296.96 55.296c-22.528 4.096-39.936 5.12-53.248 5.12-10.24 0-18.432-1.024-24.576-2.048l9.216 31.744c1.024 1.024 11.264 8.192 54.272 0 60.416-11.264 159.744-29.696 161.792-29.696 3.072 0 101.376-19.456 161.792-29.696 43.008-7.168 50.176-17.408 51.2-19.456l-2.048-27.648c-10.24 4.096-28.672 10.24-61.44 16.384z" fill="#FFFFFF" p-id="1034"></path><path d="M633.856 407.552c-19.456 60.416-81.92 89.088-117.76 101.376l17.408 94.208c1.024 6.144 0 12.288-4.096 17.408-3.072 5.12-9.216 8.192-15.36 9.216h-4.096c-11.264 0-20.48-8.192-22.528-19.456l-16.384-92.16c-34.816 3.072-111.616 2.048-155.648-52.224-35.84-44.032-57.344-142.336-65.536-214.016-1.024-7.168-4.096-12.288-10.24-15.36-6.144-3.072-12.288-3.072-18.432 0-7.168 4.096-11.264 12.288-10.24 21.504 9.216 45.056 27.648 155.648 18.432 222.208-13.312 88.064-18.432 147.456 28.672 219.136 36.864 56.32 48.128 75.776 52.224 82.944 6.144 2.048 29.696 8.192 81.92-1.024l296.96-55.296c41.984-8.192 58.368-15.36 63.488-18.432v-3.072c0-2.048 1.024-14.336 19.456-100.352 18.432-83.968-7.168-137.216-51.2-215.04-31.744-56.32-53.248-157.696-62.464-212.992-1.024-8.192-8.192-15.36-16.384-16.384-6.144-1.024-13.312 1.024-17.408 6.144-4.096 5.12-6.144 11.264-4.096 18.432 17.408 72.704 30.72 169.984 13.312 223.232z" fill="#FF1240" p-id="1035"></path><path d="M688.128 726.016c41.984-8.192 58.368-15.36 63.488-18.432v-3.072c0-2.048 5.12-13.312 19.456-100.352 16.384-100.352-14.336-142.336-39.936-194.56 29.696 93.184 40.96 160.768 16.384 222.208-12.288 30.72-34.816 57.344-67.584 63.488 0 0-218.112 46.08-289.792 58.368-24.576 4.096-94.208 5.12-94.208 5.12 12.288 19.456 12.288 20.48 14.336 24.576 6.144 2.048 29.696 8.192 81.92-1.024l295.936-56.32z" fill="#F20000" p-id="1036"></path></svg>