<?xml version="1.0" standalone="no"?><!DOCTYPE svg PUBLIC "-//W3C//DTD SVG 1.1//EN" "http://www.w3.org/Graphics/SVG/1.1/DTD/svg11.dtd"><svg t="1584780972934" class="icon" viewBox="0 0 1024 1024" version="1.1" xmlns="http://www.w3.org/2000/svg" p-id="1177" xmlns:xlink="http://www.w3.org/1999/xlink" width="32" height="32"><defs><style type="text/css"></style></defs><path d="M823.296 688.128c-1.024-15.36-20.48-27.648-53.248-50.176-16.384-10.24-34.816-22.528-55.296-37.888 0-2.048-1.024-4.096-2.048-6.144-3.072-5.12-7.168-8.192-13.312-10.24h-6.144c-2.048-2.048-4.096-3.072-7.168-5.12-2.048-1.024-3.072-3.072-5.12-4.096-2.048-2.048-4.096-4.096-6.144-5.12-1.024-1.024-2.048-1.024-2.048-2.048 0-9.216-6.144-16.384-14.336-19.456-4.096-1.024-8.192-1.024-12.288 0-7.168-5.12-14.336-11.264-22.528-17.408 1.024-8.192-4.096-17.408-12.288-20.48-5.12-2.048-9.216-2.048-14.336-1.024-6.144-5.12-12.288-11.264-19.456-17.408 1.024-4.096 2.048-8.192 1.024-12.288-1.024-5.12-5.12-10.24-10.24-13.312-6.144-3.072-12.288-4.096-18.432-2.048l-4.096-4.096c-3.072-3.072-5.12-6.144-8.192-8.192l1.024-1.024c7.168-9.216 5.12-22.528-4.096-29.696-6.144-4.096-13.312-5.12-19.456-3.072-1.024-1.024-1.024-3.072-2.048-4.096l-3.072-3.072c-1.024-2.048-2.048-5.12-3.072-7.168l5.12-5.12c8.192-8.192 7.168-22.528-1.024-29.696-4.096-4.096-9.216-6.144-15.36-6.144h-3.072c-2.048-7.168-5.12-15.36-7.168-24.576 4.096-4.096 7.168-9.216 7.168-14.336s-1.024-11.264-5.12-15.36c-3.072-4.096-7.168-6.144-12.288-7.168 0-1.024-1.024-3.072-1.024-4.096l-5.12-17.408c-5.12-18.432-23.552-35.84-50.176-33.792-11.264 1.024-40.96-5.12-74.752-25.6-44.032-26.624-94.208-11.264-97.28-10.24-20.48 8.192-25.6 20.48-26.624 30.72v1.024c0 3.072-1.024 5.12-1.024 8.192v2.048s11.264 50.176 3.072 142.336c-5.12 60.416-9.216 107.52-11.264 134.144-1.024 5.12-11.264 68.608-1.024 105.472 3.072 13.312 13.312 21.504 22.528 27.648 13.312 9.216 32.768 20.48 54.272 32.768 27.648 15.36 58.368 33.792 78.848 50.176 2.048 2.048 54.272 39.936 131.072 71.68 52.224 21.504 122.88 44.032 196.608 44.032 27.648 0 56.32-3.072 84.992-10.24 5.12-2.048 50.176-16.384 61.44-37.888 11.264-23.552 0-98.304-16.384-123.904z" fill="#F2EDEC" p-id="1178"></path><path d="M798.72 651.264c-1.024-15.36-20.48-27.648-53.248-50.176-22.528-15.36-51.2-33.792-82.944-60.416-11.264-9.216-21.504-16.384-31.744-24.576-30.72-23.552-62.464-47.104-108.544-94.208-38.912-39.936-49.152-76.8-73.728-163.84l-5.12-17.408c-5.12-18.432-23.552-35.84-50.176-33.792-11.264 1.024-40.96-5.12-74.752-25.6-44.032-26.624-94.208-11.264-97.28-10.24-20.48 8.192-25.6 20.48-26.624 30.72v1.024c0 3.072-1.024 5.12-1.024 8.192v2.048s11.264 50.176 3.072 142.336c-5.12 60.416-9.216 107.52-11.264 134.144-1.024 5.12-11.264 67.584-1.024 105.472 3.072 13.312 13.312 21.504 22.528 27.648 13.312 9.216 32.768 20.48 54.272 32.768 27.648 15.36 58.368 33.792 78.848 50.176 2.048 2.048 54.272 39.936 131.072 71.68 52.224 21.504 122.88 44.032 196.608 44.032 27.648 0 56.32-3.072 84.992-10.24 5.12-2.048 50.176-16.384 61.44-37.888 12.288-21.504 2.048-96.256-15.36-121.856z m-61.44-35.84c22.528 14.336 45.056 29.696 46.08 36.864v2.048c-2.048 4.096-11.264 11.264-51.2 24.576-18.432 6.144-62.464 15.36-136.192 3.072 43.008-64.512 99.328-82.944 112.64-86.016 10.24 7.168 19.456 13.312 28.672 19.456zM227.328 187.392s45.056-14.336 82.944 8.192c34.816 20.48 67.584 29.696 83.968 28.672 19.456-1.024 31.744 12.288 33.792 21.504l5.12 17.408c24.576 90.112 34.816 128 77.824 171.008 47.104 48.128 80.896 73.728 109.568 96.256 10.24 8.192 21.504 16.384 31.744 24.576 13.312 11.264 26.624 20.48 38.912 29.696-20.48 7.168-55.296 23.552-87.04 59.392 0-22.528-8.192-51.2-38.912-81.92-11.264-11.264-21.504-20.48-30.72-29.696-60.416-58.368-82.944-80.896-106.496-140.288-9.216-24.576-13.312-49.152-17.408-70.656-8.192-48.128-15.36-89.088-73.728-83.968-103.424 9.216-123.904-27.648-126.976-34.816 2.048-5.12 5.12-10.24 17.408-15.36z m318.464 438.272c0-7.168 4.096-12.288 10.24-12.288s10.24 5.12 10.24 12.288-4.096 12.288-10.24 12.288-10.24-6.144-10.24-12.288z m10.24 27.648c14.336 0 26.624-12.288 26.624-28.672s-12.288-28.672-26.624-28.672-26.624 12.288-26.624 28.672c0 6.144 2.048 12.288 5.12 16.384C331.776 493.568 312.32 296.96 310.272 256c9.216 0 18.432-1.024 28.672-1.024 40.96-4.096 47.104 18.432 55.296 70.656 4.096 22.528 8.192 48.128 18.432 73.728 24.576 63.488 49.152 87.04 110.592 146.432 9.216 9.216 19.456 18.432 30.72 29.696 45.056 44.032 35.84 82.944 26.624 99.328-1.024-1.024-1.024-2.048-2.048-2.048l-27.648-18.432c1.024-1.024 3.072-1.024 5.12-1.024zM212.992 357.376c5.12-59.392 3.072-101.376 0-125.952 14.336 11.264 38.912 22.528 80.896 23.552 2.048 44.032 23.552 262.144 256 417.792-81.92-20.48-192.512-64.512-335.872-154.624-9.216-6.144-14.336-16.384-13.312-27.648 3.072-25.6 7.168-72.704 12.288-133.12z m587.776 407.552c-6.144 11.264-34.816 24.576-51.2 29.696-189.44 49.152-397.312-101.376-399.36-102.4-21.504-16.384-53.248-34.816-80.896-51.2-20.48-12.288-39.936-23.552-52.224-31.744-8.192-6.144-14.336-11.264-16.384-19.456-5.12-18.432-4.096-45.056-2.048-65.536 3.072 3.072 5.12 5.12 9.216 7.168 70.656 45.056 288.768 173.056 453.632 173.056 26.624 0 52.224-3.072 75.776-11.264 27.648-9.216 45.056-16.384 54.272-24.576 10.24 27.648 16.384 83.968 9.216 96.256z" fill="#3B0005" p-id="1179"></path><path d="M370.688 305.152c0-15.36-12.288-28.672-26.624-28.672S317.44 289.792 317.44 305.152s12.288 28.672 26.624 28.672 26.624-12.288 26.624-28.672z m-36.864 0c0-7.168 4.096-12.288 10.24-12.288s10.24 5.12 10.24 12.288-4.096 12.288-10.24 12.288-10.24-5.12-10.24-12.288zM389.12 366.592c0-15.36-12.288-28.672-26.624-28.672s-26.624 12.288-26.624 28.672 12.288 28.672 26.624 28.672 26.624-13.312 26.624-28.672z m-35.84 0c0-7.168 4.096-12.288 10.24-12.288s10.24 5.12 10.24 12.288S368.64 378.88 362.496 378.88s-9.216-6.144-9.216-12.288zM412.672 428.032c0-15.36-12.288-28.672-26.624-28.672s-26.624 12.288-26.624 28.672 12.288 28.672 26.624 28.672 26.624-12.288 26.624-28.672zM387.072 440.32c-5.12 0-10.24-5.12-10.24-12.288s4.096-12.288 10.24-12.288 10.24 5.12 10.24 12.288-5.12 12.288-10.24 12.288zM452.608 487.424c0-15.36-12.288-28.672-26.624-28.672S399.36 472.064 399.36 487.424s12.288 28.672 26.624 28.672 26.624-12.288 26.624-28.672z m-26.624 12.288c-5.12 0-10.24-5.12-10.24-12.288s4.096-12.288 10.24-12.288 10.24 5.12 10.24 12.288-5.12 12.288-10.24 12.288zM464.896 509.952c-14.336 0-26.624 12.288-26.624 28.672s12.288 28.672 26.624 28.672 26.624-12.288 26.624-28.672-11.264-28.672-26.624-28.672z m0 39.936c-5.12 0-10.24-5.12-10.24-12.288s4.096-12.288 10.24-12.288 10.24 5.12 10.24 12.288-4.096 12.288-10.24 12.288zM510.976 552.96c-14.336 0-26.624 12.288-26.624 28.672s12.288 28.672 26.624 28.672 26.624-12.288 26.624-28.672-12.288-28.672-26.624-28.672z m0 40.96c-5.12 0-10.24-5.12-10.24-12.288s4.096-12.288 10.24-12.288c5.12 0 10.24 5.12 10.24 12.288s-4.096 12.288-10.24 12.288z" fill="#3B0005" p-id="1180"></path><path d="M415.744 487.424a12.288 10.24 90 1 0 20.48 0 12.288 10.24 90 1 0-20.48 0Z" fill="#F4EEEB" p-id="1181"></path><path d="M454.656 537.6a12.288 10.24 90 1 0 20.48 0 12.288 10.24 90 1 0-20.48 0Z" fill="#F4EEEB" p-id="1182"></path><path d="M376.832 428.032a12.288 10.24 90 1 0 20.48 0 12.288 10.24 90 1 0-20.48 0Z" fill="#F4EEEB" p-id="1183"></path><path d="M500.736 581.632a12.288 10.24 90 1 0 20.48 0 12.288 10.24 90 1 0-20.48 0Z" fill="#F4EEEB" p-id="1184"></path><path d="M352.256 366.592a12.288 10.24 90 1 0 20.48 0 12.288 10.24 90 1 0-20.48 0Z" fill="#F4EEEB" p-id="1185"></path><path d="M333.824 305.152a12.288 10.24 90 1 0 20.48 0 12.288 10.24 90 1 0-20.48 0Z" fill="#F4EEEB" p-id="1186"></path><path d="M545.792 625.664a12.288 10.24 90 1 0 20.48 0 12.288 10.24 90 1 0-20.48 0Z" fill="#F4EEEB" p-id="1187"></path><path d="M580.608 673.792c8.192-17.408 18.432-55.296-26.624-99.328-11.264-11.264-21.504-20.48-30.72-29.696-60.416-58.368-86.016-82.944-110.592-146.432-10.24-25.6-14.336-51.2-18.432-73.728-8.192-51.2-14.336-73.728-55.296-70.656-10.24 1.024-19.456 1.024-28.672 1.024 2.048 41.984 21.504 237.568 224.256 386.048-3.072-5.12-5.12-10.24-5.12-16.384 0-15.36 12.288-28.672 26.624-28.672s26.624 12.288 26.624 28.672-12.288 28.672-26.624 28.672c-2.048 0-4.096 0-5.12-1.024l27.648 18.432c1.024 1.024 1.024 2.048 2.048 3.072zM317.44 305.152c0-15.36 12.288-28.672 26.624-28.672s26.624 12.288 26.624 28.672-12.288 28.672-26.624 28.672-26.624-12.288-26.624-28.672z m19.456 61.44c0-15.36 12.288-28.672 26.624-28.672s26.624 12.288 26.624 28.672-12.288 28.672-26.624 28.672-26.624-13.312-26.624-28.672z m23.552 61.44c0-15.36 12.288-28.672 26.624-28.672s26.624 12.288 26.624 28.672-12.288 28.672-26.624 28.672-26.624-12.288-26.624-28.672z m38.912 59.392c0-15.36 12.288-28.672 26.624-28.672s26.624 12.288 26.624 28.672-12.288 28.672-26.624 28.672-26.624-12.288-26.624-28.672z m65.536 78.848c-14.336 0-26.624-12.288-26.624-28.672s12.288-28.672 26.624-28.672S491.52 522.24 491.52 537.6s-11.264 28.672-26.624 28.672z m46.08 44.032c-14.336 0-26.624-12.288-26.624-28.672s12.288-28.672 26.624-28.672 26.624 12.288 26.624 28.672-12.288 28.672-26.624 28.672z" fill="#0A66EA" p-id="1188"></path><path d="M337.92 237.568c58.368-5.12 65.536 35.84 73.728 83.968 4.096 21.504 8.192 46.08 17.408 70.656 22.528 59.392 45.056 81.92 106.496 140.288 9.216 9.216 19.456 18.432 30.72 29.696 30.72 29.696 38.912 58.368 38.912 81.92 32.768-35.84 67.584-52.224 87.04-59.392-12.288-9.216-25.6-18.432-38.912-29.696-10.24-8.192-21.504-16.384-31.744-24.576-29.696-22.528-63.488-48.128-109.568-96.256-41.984-43.008-52.224-80.896-77.824-171.008l-6.144-17.408c-3.072-9.216-14.336-23.552-33.792-21.504-16.384 1.024-50.176-7.168-83.968-28.672-37.888-23.552-81.92-9.216-82.944-8.192-11.264 5.12-15.36 10.24-16.384 16.384 3.072 6.144 23.552 43.008 126.976 33.792z" fill="#F4EEEB" p-id="1189"></path><path d="M436.224 363.52l25.6-28.672c5.12-5.12 13.312-6.144 18.432-1.024s6.144 13.312 1.024 18.432l-25.6 28.672c-5.12 5.12-13.312 6.144-18.432 1.024-6.144-4.096-6.144-13.312-1.024-18.432z" fill="#FFFFFF" p-id="1190"></path><path d="M445.44 394.24c-5.12 0-10.24-2.048-14.336-6.144-4.096-4.096-6.144-9.216-7.168-14.336 0-6.144 2.048-11.264 6.144-15.36l25.6-28.672c4.096-4.096 9.216-6.144 14.336-7.168 6.144 0 11.264 2.048 15.36 6.144 8.192 8.192 9.216 21.504 1.024 29.696L460.8 387.072c-4.096 4.096-9.216 7.168-15.36 7.168z m26.624-54.272c-1.024 0-3.072 1.024-4.096 2.048l-25.6 28.672c-1.024 1.024-1.024 2.048-1.024 3.072 0 1.024 1.024 2.048 2.048 3.072s2.048 1.024 3.072 1.024c1.024 0 2.048-1.024 3.072-2.048l25.6-28.672c2.048-2.048 2.048-5.12 0-7.168h-3.072z m-35.84 23.552z" fill="#3B0005" p-id="1191"></path><path d="M468.992 400.384L378.88 382.976c-7.168-1.024-12.288-8.192-10.24-15.36 1.024-7.168 8.192-12.288 15.36-10.24l90.112 17.408c7.168 1.024 12.288 8.192 10.24 15.36-2.048 6.144-8.192 11.264-15.36 10.24z" fill="#FFFFFF" p-id="1192"></path><path d="M471.04 408.576h-4.096l-90.112-17.408c-5.12-1.024-10.24-4.096-13.312-9.216-3.072-5.12-4.096-10.24-3.072-16.384 1.024-5.12 4.096-10.24 9.216-13.312s10.24-4.096 16.384-3.072l90.112 17.408c5.12 1.024 10.24 4.096 13.312 9.216 3.072 5.12 4.096 10.24 3.072 16.384-2.048 9.216-11.264 16.384-21.504 16.384z m-1.024-16.384c3.072 1.024 5.12-1.024 6.144-4.096 0-1.024 0-3.072-1.024-4.096-1.024-1.024-2.048-2.048-3.072-2.048l-90.112-17.408c-1.024 0-3.072 0-4.096 1.024-1.024 1.024-2.048 2.048-2.048 3.072s0 3.072 1.024 4.096c1.024 1.024 2.048 2.048 3.072 2.048l90.112 17.408z" fill="#3B0005" p-id="1193"></path><path d="M463.872 422.912l22.528-30.72c4.096-6.144 12.288-7.168 18.432-3.072 6.144 4.096 7.168 12.288 3.072 18.432l-22.528 30.72c-4.096 6.144-12.288 7.168-18.432 3.072-6.144-5.12-7.168-13.312-3.072-18.432z" fill="#FFFFFF" p-id="1194"></path><path d="M475.136 451.584c-4.096 0-9.216-1.024-12.288-4.096-4.096-3.072-7.168-8.192-8.192-14.336-1.024-5.12 1.024-11.264 4.096-15.36l22.528-30.72c7.168-9.216 20.48-11.264 29.696-4.096 9.216 7.168 11.264 20.48 4.096 29.696l-22.528 30.72c-5.12 5.12-11.264 8.192-17.408 8.192z m-4.096-24.576c-2.048 2.048-1.024 5.12 1.024 7.168 2.048 2.048 5.12 1.024 7.168-1.024l22.528-30.72c2.048-2.048 1.024-5.12-1.024-7.168-2.048-2.048-5.12-1.024-7.168 1.024l-22.528 30.72z" fill="#3B0005" p-id="1195"></path><path d="M498.688 451.584l-91.136-8.192c-7.168-1.024-12.288-7.168-12.288-14.336 1.024-7.168 7.168-12.288 14.336-12.288l91.136 8.192c7.168 1.024 12.288 7.168 12.288 14.336-1.024 7.168-7.168 12.288-14.336 12.288z" fill="#FFFFFF" p-id="1196"></path><path d="M499.712 459.776h-2.048l-91.136-8.192c-6.144 0-11.264-3.072-14.336-7.168s-5.12-10.24-5.12-15.36c0-6.144 3.072-11.264 7.168-14.336s10.24-5.12 15.36-5.12l91.136 8.192c6.144 0 11.264 3.072 14.336 7.168 4.096 4.096 5.12 10.24 5.12 15.36 0 6.144-3.072 11.264-7.168 14.336-4.096 3.072-8.192 5.12-13.312 5.12z m-92.16-33.792c-1.024 0-2.048 0-3.072 1.024-1.024 1.024-2.048 2.048-2.048 3.072 0 1.024 0 3.072 1.024 4.096 1.024 1.024 2.048 2.048 3.072 2.048l91.136 8.192c1.024 0 2.048 0 3.072-1.024 1.024-1.024 2.048-2.048 2.048-3.072 0-1.024 0-3.072-1.024-4.096-1.024-1.024-2.048-2.048-3.072-2.048l-91.136-8.192z" fill="#3B0005" p-id="1197"></path><path d="M502.784 473.088L522.24 440.32c4.096-6.144 11.264-8.192 18.432-4.096 6.144 4.096 8.192 11.264 4.096 18.432l-19.456 32.768c-4.096 6.144-11.264 8.192-18.432 4.096-5.12-4.096-7.168-12.288-4.096-18.432z" fill="#FFFFFF" p-id="1198"></path><path d="M514.048 500.736c-4.096 0-7.168-1.024-11.264-3.072-5.12-3.072-8.192-7.168-10.24-13.312s-1.024-11.264 2.048-16.384l19.456-32.768c6.144-10.24 19.456-13.312 29.696-7.168 5.12 3.072 8.192 7.168 10.24 13.312s1.024 11.264-2.048 16.384L532.48 490.496c-4.096 6.144-11.264 10.24-18.432 10.24z m-4.096-23.552c-1.024 1.024-1.024 2.048-1.024 4.096s1.024 2.048 2.048 3.072c1.024 1.024 2.048 1.024 4.096 1.024 1.024 0 2.048-1.024 3.072-2.048l19.456-32.768c1.024-1.024 1.024-2.048 1.024-4.096 0-1.024-1.024-2.048-2.048-3.072-1.024-1.024-2.048-1.024-4.096-1.024-1.024 0-2.048 1.024-3.072 2.048l-19.456 32.768z" fill="#3B0005" p-id="1199"></path><path d="M543.744 498.688l-98.304 2.048c-7.168 0-13.312-5.12-13.312-13.312 0-7.168 5.12-13.312 13.312-13.312l98.304-2.048c7.168 0 13.312 5.12 13.312 13.312-1.024 7.168-6.144 13.312-13.312 13.312z" fill="#FFFFFF" p-id="1200"></path><path d="M445.44 508.928c-11.264 0-21.504-9.216-21.504-20.48 0-6.144 2.048-11.264 6.144-15.36 4.096-4.096 9.216-6.144 15.36-6.144l98.304-2.048c11.264 0 21.504 9.216 21.504 20.48 0 6.144-2.048 11.264-6.144 15.36-4.096 4.096-9.216 6.144-15.36 6.144l-98.304 2.048z m97.28-28.672l-98.304 2.048c-1.024 0-2.048 1.024-3.072 1.024-1.024 2.048-1.024 3.072-1.024 4.096 0 3.072 3.072 5.12 5.12 5.12l98.304-2.048c1.024 0 2.048-1.024 3.072-1.024 1.024-1.024 1.024-2.048 1.024-3.072 0-4.096-2.048-6.144-5.12-6.144z" fill="#3B0005" p-id="1201"></path><path d="M408.576 299.008l28.672-25.6c5.12-5.12 13.312-4.096 18.432 1.024s4.096 13.312-1.024 18.432l-28.672 25.6c-5.12 5.12-13.312 4.096-18.432-1.024-5.12-6.144-4.096-14.336 1.024-18.432z" fill="#FFFFFF" p-id="1202"></path><path d="M417.792 329.728h-1.024c-6.144 0-11.264-3.072-14.336-7.168-4.096-4.096-5.12-10.24-5.12-15.36s3.072-11.264 7.168-14.336l28.672-25.6c4.096-4.096 10.24-5.12 15.36-5.12 6.144 0 11.264 3.072 14.336 7.168 4.096 4.096 5.12 10.24 5.12 15.36s-3.072 11.264-7.168 14.336l-28.672 25.6c-4.096 3.072-9.216 5.12-14.336 5.12z m28.672-51.2c-1.024 0-2.048 0-3.072 1.024l-28.672 25.6c-1.024 1.024-2.048 2.048-2.048 3.072 0 1.024 0 3.072 1.024 3.072 1.024 1.024 2.048 2.048 3.072 2.048 1.024 0 3.072 0 3.072-1.024l28.672-25.6c1.024-1.024 2.048-2.048 2.048-3.072s0-3.072-1.024-3.072c0-2.048-2.048-2.048-3.072-2.048z m-37.888 20.48z" fill="#3B0005" p-id="1203"></path><path d="M438.272 337.92l-88.064-26.624c-7.168-2.048-11.264-9.216-9.216-16.384 2.048-7.168 9.216-11.264 16.384-9.216l88.064 26.624c7.168 2.048 11.264 9.216 9.216 16.384-2.048 8.192-9.216 12.288-16.384 9.216z" fill="#FFFFFF" p-id="1204"></path><path d="M442.368 347.136c-2.048 0-4.096 0-6.144-1.024L348.16 319.488c-11.264-3.072-17.408-15.36-14.336-26.624 2.048-5.12 5.12-10.24 10.24-12.288 5.12-3.072 11.264-3.072 16.384-2.048l88.064 26.624c11.264 3.072 17.408 15.36 14.336 26.624-2.048 5.12-5.12 10.24-10.24 12.288-3.072 2.048-7.168 3.072-10.24 3.072z m-88.064-53.248c-1.024 0-2.048 0-2.048 1.024-1.024 1.024-2.048 2.048-2.048 3.072-1.024 3.072 1.024 5.12 3.072 6.144l88.064 26.624h4.096c1.024-1.024 2.048-2.048 2.048-3.072 1.024-3.072-1.024-5.12-3.072-6.144l-88.064-26.624c-1.024-1.024-1.024-1.024-2.048-1.024z" fill="#3B0005" p-id="1205"></path><path d="M602.112 563.2l12.288-35.84c2.048-7.168 10.24-10.24 16.384-8.192 7.168 2.048 10.24 10.24 8.192 16.384l-12.288 35.84c-2.048 7.168-10.24 10.24-16.384 8.192-6.144-2.048-10.24-10.24-8.192-16.384z" fill="#FFFFFF" p-id="1206"></path><path d="M615.424 588.8c-2.048 0-5.12 0-7.168-1.024-5.12-2.048-10.24-6.144-12.288-10.24-2.048-5.12-3.072-11.264-1.024-16.384l12.288-35.84c4.096-11.264 16.384-17.408 26.624-13.312 11.264 4.096 17.408 16.384 13.312 26.624L634.88 573.44c-2.048 5.12-6.144 10.24-10.24 12.288-3.072 2.048-6.144 3.072-9.216 3.072z m12.288-62.464c-2.048 0-4.096 1.024-5.12 3.072l-12.288 35.84v4.096c1.024 1.024 2.048 2.048 3.072 2.048h4.096c1.024-1.024 2.048-2.048 2.048-3.072l12.288-35.84c1.024-3.072-1.024-5.12-3.072-6.144h-1.024zM602.112 563.2z" fill="#3B0005" p-id="1207"></path><path d="M644.096 564.224l-117.76 27.648c-7.168 2.048-14.336-3.072-15.36-10.24-2.048-7.168 3.072-14.336 10.24-15.36l117.76-27.648c7.168-2.048 14.336 3.072 15.36 10.24 1.024 6.144-3.072 13.312-10.24 15.36z" fill="#FFFFFF" p-id="1208"></path><path d="M524.288 600.064c-9.216 0-18.432-6.144-20.48-16.384-3.072-11.264 4.096-22.528 16.384-25.6l117.76-27.648c11.264-3.072 22.528 4.096 25.6 16.384 1.024 5.12 0 11.264-3.072 16.384s-8.192 8.192-13.312 9.216l-117.76 27.648h-5.12z m116.736-54.272h-1.024L523.264 573.44c-1.024 0-2.048 1.024-3.072 2.048-1.024 1.024-1.024 2.048-1.024 4.096s1.024 2.048 2.048 3.072c1.024 1.024 3.072 1.024 4.096 1.024l117.76-27.648c1.024 0 2.048-1.024 3.072-2.048s1.024-2.048 1.024-4.096c-2.048-2.048-4.096-4.096-6.144-4.096z" fill="#3B0005" p-id="1209"></path><path d="M550.912 520.192l16.384-34.816c3.072-6.144 11.264-9.216 17.408-6.144 6.144 3.072 9.216 11.264 6.144 17.408l-16.384 34.816c-3.072 6.144-11.264 9.216-17.408 6.144-6.144-2.048-9.216-10.24-6.144-17.408z" fill="#FFFFFF" p-id="1210"></path><path d="M562.176 547.84c-3.072 0-6.144-1.024-9.216-2.048-10.24-5.12-15.36-17.408-10.24-28.672l16.384-34.816c5.12-10.24 17.408-15.36 28.672-10.24 10.24 5.12 15.36 17.408 10.24 28.672l-16.384 34.816c-2.048 5.12-6.144 9.216-12.288 11.264-2.048 0-4.096 1.024-7.168 1.024z m-4.096-23.552c-1.024 2.048 0 5.12 2.048 6.144 1.024 1.024 2.048 1.024 4.096 0 1.024 0 2.048-1.024 3.072-3.072l16.384-34.816c1.024-2.048 0-5.12-2.048-6.144-2.048-1.024-5.12 0-6.144 2.048l-17.408 35.84z" fill="#3B0005" p-id="1211"></path><path d="M594.944 534.528l-105.472 13.312c-7.168 1.024-13.312-4.096-14.336-11.264-1.024-7.168 4.096-13.312 11.264-14.336l105.472-13.312c7.168-1.024 13.312 4.096 14.336 11.264 1.024 7.168-4.096 14.336-11.264 14.336z" fill="#FFFFFF" p-id="1212"></path><path d="M487.424 556.032c-10.24 0-19.456-8.192-21.504-18.432-1.024-11.264 7.168-22.528 18.432-23.552l105.472-13.312c11.264-1.024 22.528 7.168 23.552 18.432 1.024 6.144-1.024 11.264-4.096 15.36-3.072 4.096-8.192 7.168-14.336 8.192l-105.472 13.312h-2.048z m105.472-38.912l-106.496 13.312c-3.072 0-5.12 3.072-4.096 5.12 0 3.072 3.072 5.12 5.12 4.096L593.92 526.336c1.024 0 2.048-1.024 3.072-2.048s1.024-2.048 1.024-4.096c0-1.024-2.048-3.072-5.12-3.072z m2.048 17.408z" fill="#3B0005" p-id="1213"></path><path d="M676.864 579.584l-98.304 56.32c-6.144 4.096-14.336 1.024-18.432-5.12-4.096-6.144-1.024-14.336 5.12-18.432l98.304-56.32c6.144-4.096 14.336-1.024 18.432 5.12 3.072 6.144 1.024 14.336-5.12 18.432z" fill="#FFFFFF" p-id="1214"></path><path d="M572.416 646.144c-7.168 0-14.336-4.096-18.432-10.24-3.072-5.12-4.096-10.24-2.048-16.384 1.024-5.12 5.12-10.24 10.24-13.312l98.304-56.32c5.12-3.072 10.24-4.096 16.384-2.048 5.12 1.024 10.24 5.12 13.312 10.24 3.072 5.12 4.096 10.24 2.048 16.384-1.024 5.12-5.12 10.24-10.24 13.312L583.68 644.096c-4.096 1.024-8.192 2.048-11.264 2.048z m97.28-82.944c-1.024 0-2.048 0-2.048 1.024l-98.304 56.32c-1.024 1.024-2.048 2.048-2.048 3.072v4.096c1.024 2.048 4.096 3.072 7.168 2.048l98.304-56.32c2.048-1.024 3.072-4.096 2.048-7.168-1.024-2.048-3.072-3.072-5.12-3.072z" fill="#3B0005" p-id="1215"></path><path d="M215.04 518.144c143.36 90.112 253.952 134.144 335.872 154.624C317.44 518.144 295.936 300.032 293.888 254.976c-41.984-2.048-66.56-12.288-80.896-23.552 3.072 23.552 5.12 65.536 0 125.952s-9.216 107.52-11.264 134.144c-1.024 10.24 4.096 21.504 13.312 26.624z" fill="#0379F5" p-id="1216"></path><path d="M594.944 681.984c73.728 12.288 116.736 3.072 136.192-3.072 40.96-13.312 50.176-20.48 51.2-24.576v-2.048c-1.024-7.168-23.552-22.528-46.08-36.864-9.216-6.144-18.432-12.288-28.672-19.456-13.312 3.072-69.632 21.504-112.64 86.016z" fill="#FFFFFF" p-id="1217"></path><path d="M660.48 705.536c-165.888 0-382.976-128-453.632-173.056-3.072-2.048-6.144-5.12-9.216-7.168-2.048 20.48-2.048 47.104 2.048 65.536 2.048 7.168 8.192 13.312 16.384 19.456 12.288 9.216 31.744 20.48 52.224 31.744 27.648 16.384 59.392 33.792 80.896 51.2 2.048 1.024 209.92 151.552 399.36 102.4 16.384-5.12 45.056-18.432 51.2-29.696 7.168-12.288 1.024-68.608-10.24-95.232-9.216 8.192-26.624 15.36-54.272 24.576-22.528 6.144-48.128 10.24-74.752 10.24z" fill="#FFFFFF" p-id="1218"></path></svg>