<?xml version="1.0" standalone="no"?><!DOCTYPE svg PUBLIC "-//W3C//DTD SVG 1.1//EN" "http://www.w3.org/Graphics/SVG/1.1/DTD/svg11.dtd"><svg t="1584780995531" class="icon" viewBox="0 0 1024 1024" version="1.1" xmlns="http://www.w3.org/2000/svg" p-id="2135" xmlns:xlink="http://www.w3.org/1999/xlink" width="32" height="32"><defs><style type="text/css"></style></defs><path d="M732.16 406.528c26.624-45.056 12.288-126.976-80.896-197.632-73.728-56.32-157.696-51.2-189.44-10.24-2.048 2.048-3.072 5.12-5.12 7.168-5.12 5.12-108.544 151.552-140.288 283.648 0 1.024-8.192 34.816-8.192 80.896 0 55.296 19.456 203.776 24.576 247.808 2.048 13.312 8.192 25.6 17.408 34.816C368.64 869.376 405.504 890.88 470.016 890.88c46.08 0 80.896-10.24 105.472-29.696 16.384-13.312 26.624-33.792 27.648-56.32l10.24-231.424c52.224-19.456 94.208-78.848 116.736-114.688 4.096-6.144 3.072-13.312-1.024-19.456-4.096-6.144-11.264-8.192-18.432-7.168-1.024 0-2.048 0-3.072 1.024 10.24-8.192 18.432-16.384 24.576-26.624z" fill="#F2EDEC" p-id="2136"></path><path d="M704.512 372.736C731.136 327.68 716.8 245.76 623.616 175.104c-73.728-56.32-157.696-51.2-189.44-10.24-2.048 2.048-3.072 5.12-5.12 7.168-4.096 6.144-108.544 151.552-139.264 283.648 0 1.024-8.192 34.816-8.192 80.896 0 55.296 19.456 203.776 24.576 247.808 2.048 13.312 8.192 25.6 17.408 34.816 19.456 17.408 55.296 38.912 119.808 38.912 46.08 0 80.896-10.24 105.472-29.696 16.384-13.312 26.624-33.792 27.648-56.32l10.24-231.424c52.224-19.456 94.208-78.848 116.736-114.688 4.096-6.144 3.072-13.312-1.024-19.456-4.096-6.144-11.264-8.192-18.432-7.168-1.024 0-2.048 0-3.072 1.024 9.216-8.192 17.408-17.408 23.552-27.648zM560.128 730.112c-3.072-2.048-6.144-4.096-10.24-5.12 4.096-3.072 7.168-6.144 10.24-9.216v14.336z m2.048-48.128c-1.024 4.096-11.264 35.84-52.224 40.96-48.128-6.144-108.544-41.984-130.048-118.784-7.168-23.552-6.144-40.96 2.048-50.176 15.36-18.432 58.368-14.336 100.352-10.24 29.696 3.072 60.416 6.144 84.992 1.024h1.024l-6.144 137.216zM686.08 414.72h1.024v1.024c-17.408 28.672-60.416 92.16-111.616 109.568-1.024 0-2.048 0-2.048 1.024-3.072 1.024-6.144 2.048-9.216 2.048-22.528 4.096-52.224 1.024-79.872-1.024-48.128-4.096-94.208-9.216-114.688 16.384-12.288 14.336-13.312 35.84-5.12 65.536 23.552 83.968 91.136 122.88 145.408 130.048h1.024c9.216 1.024 18.432 1.024 26.624 0 6.144-1.024 12.288 1.024 16.384 5.12 4.096 3.072 6.144 8.192 6.144 12.288l-1.024 13.312c-1.024 17.408-8.192 33.792-21.504 44.032-21.504 17.408-53.248 25.6-95.232 25.6-59.392 0-91.136-18.432-108.544-34.816-7.168-6.144-11.264-15.36-12.288-24.576-6.144-44.032-24.576-190.464-24.576-245.76 0-44.032 8.192-76.8 8.192-76.8 20.48-84.992 71.68-177.152 106.496-231.424 0 34.816 18.432 76.8 73.728 128 32.768 30.72 67.584 50.176 101.376 57.344 38.912 12.288 74.752 8.192 99.328 3.072zM633.856 399.36c-43.008 6.144-91.136-13.312-137.216-55.296-70.656-63.488-87.04-121.856-50.176-169.984 12.288-15.36 35.84-24.576 63.488-24.576 31.744 0 68.608 11.264 103.424 37.888 98.304 74.752 93.184 148.48 76.8 177.152-10.24 17.408-31.744 30.72-56.32 34.816z" fill="#3B0005" p-id="2137"></path><path d="M495.616 393.216c-32.768-19.456-56.32-51.2-70.656-72.704-6.144-9.216-15.36-14.336-25.6-13.312-10.24 0-20.48 6.144-25.6 15.36-22.528 39.936-34.816 73.728-40.96 90.112-3.072 8.192-2.048 17.408 3.072 24.576 23.552 39.936 63.488 61.44 84.992 70.656 4.096 2.048 8.192 2.048 11.264 2.048 7.168 0 14.336-3.072 19.456-7.168 19.456-17.408 39.936-47.104 53.248-68.608 4.096-7.168 5.12-15.36 4.096-22.528-2.048-8.192-7.168-14.336-13.312-18.432z m-4.096 31.744c-10.24 16.384-30.72 48.128-50.176 65.536-4.096 3.072-9.216 4.096-14.336 2.048-19.456-8.192-55.296-27.648-76.8-63.488-2.048-3.072-3.072-8.192-1.024-11.264 5.12-16.384 18.432-49.152 39.936-88.064 2.048-4.096 6.144-7.168 11.264-7.168 5.12 0 8.192 2.048 11.264 6.144 15.36 23.552 40.96 56.32 76.8 78.848 3.072 2.048 5.12 5.12 6.144 8.192l-3.072 9.216z" fill="#3B0005" p-id="2138"></path><path d="M560.128 730.112l1.024-14.336c-3.072 3.072-6.144 6.144-10.24 9.216 3.072 1.024 6.144 3.072 9.216 5.12z" fill="#2ABC88" p-id="2139"></path><path d="M482.304 543.744c-41.984-4.096-84.992-8.192-100.352 10.24-8.192 9.216-9.216 26.624-2.048 50.176 21.504 76.8 82.944 111.616 130.048 118.784 40.96-5.12 51.2-36.864 52.224-40.96l6.144-137.216h-1.024c-24.576 4.096-55.296 2.048-84.992-1.024z" fill="#F4EEEB" p-id="2140"></path><path d="M487.424 407.552c-35.84-21.504-61.44-54.272-76.8-78.848-2.048-4.096-6.144-6.144-11.264-6.144-5.12 0-9.216 3.072-11.264 7.168-21.504 38.912-33.792 71.68-39.936 88.064-1.024 4.096-1.024 8.192 1.024 11.264 21.504 35.84 57.344 55.296 76.8 63.488 5.12 2.048 10.24 1.024 14.336-2.048 19.456-17.408 39.936-48.128 50.176-65.536 2.048-3.072 2.048-7.168 2.048-10.24-1.024-3.072-3.072-6.144-5.12-7.168z" fill="#2ABC88" p-id="2141"></path><path d="M495.616 344.064c46.08 41.984 95.232 61.44 137.216 55.296 25.6-4.096 46.08-16.384 56.32-34.816 16.384-28.672 21.504-101.376-76.8-177.152-34.816-26.624-72.704-37.888-103.424-37.888-27.648 0-51.2 9.216-63.488 24.576-35.84 48.128-19.456 106.496 50.176 169.984z" fill="#F4EEEB" p-id="2142"></path><path d="M586.752 413.696c-33.792-7.168-68.608-26.624-102.4-57.344-55.296-50.176-73.728-93.184-73.728-128-33.792 54.272-86.016 146.432-106.496 231.424 0 0-8.192 32.768-8.192 76.8 0 54.272 18.432 201.728 24.576 245.76 1.024 9.216 6.144 18.432 12.288 24.576 16.384 15.36 49.152 34.816 108.544 34.816 41.984 0 73.728-9.216 95.232-25.6 12.288-10.24 20.48-26.624 21.504-44.032l1.024-13.312c0-5.12-2.048-9.216-6.144-12.288-4.096-4.096-10.24-6.144-16.384-5.12-8.192 1.024-17.408 1.024-26.624 0h-1.024c-53.248-7.168-120.832-46.08-145.408-130.048-8.192-29.696-7.168-51.2 5.12-65.536 20.48-24.576 66.56-20.48 114.688-16.384 28.672 3.072 58.368 5.12 79.872 1.024 3.072-1.024 6.144-1.024 9.216-2.048 1.024 0 2.048-1.024 2.048-1.024 51.2-17.408 94.208-80.896 111.616-109.568v-1.024c0-1.024-1.024 0-1.024 0-23.552 3.072-59.392 7.168-98.304-3.072z m-81.92 20.48c-13.312 21.504-33.792 51.2-53.248 68.608-5.12 5.12-12.288 7.168-19.456 7.168-4.096 0-8.192-1.024-11.264-2.048-21.504-9.216-61.44-30.72-84.992-70.656-4.096-7.168-5.12-16.384-3.072-24.576 6.144-16.384 18.432-50.176 40.96-90.112 5.12-9.216 14.336-15.36 25.6-15.36 10.24 0 20.48 5.12 25.6 13.312 14.336 22.528 37.888 53.248 70.656 72.704 7.168 4.096 11.264 10.24 13.312 18.432 2.048 7.168 0 15.36-4.096 22.528z" fill="#27AF7B" p-id="2143"></path><path d="M422.912 700.416c-25.6-21.504-47.104-51.2-58.368-92.16-8.192-29.696-7.168-51.2 5.12-65.536 19.456-22.528 58.368-21.504 101.376-17.408 29.696-40.96 68.608-88.064 94.208-119.808-26.624-10.24-54.272-26.624-79.872-50.176-55.296-50.176-73.728-93.184-73.728-128-33.792 54.272-86.016 146.432-106.496 231.424 0 0-8.192 32.768-8.192 76.8 0 54.272 18.432 201.728 24.576 245.76 1.024 9.216 6.144 18.432 12.288 24.576 14.336 13.312 46.08 30.72 92.16 34.816 0-39.936-1.024-93.184-3.072-140.288z m-88.064-264.192c-4.096-7.168-5.12-16.384-3.072-24.576 6.144-16.384 18.432-50.176 40.96-90.112 5.12-9.216 14.336-15.36 25.6-15.36 10.24 0 20.48 5.12 25.6 13.312 14.336 22.528 37.888 53.248 70.656 72.704 7.168 4.096 11.264 10.24 13.312 18.432 2.048 8.192 1.024 15.36-4.096 22.528-13.312 21.504-33.792 51.2-53.248 68.608-5.12 5.12-12.288 7.168-19.456 7.168-4.096 0-8.192-1.024-11.264-2.048-21.504-9.216-60.416-29.696-84.992-70.656z" fill="#2ABC88" p-id="2144"></path></svg>