<?xml version="1.0" standalone="no"?><!DOCTYPE svg PUBLIC "-//W3C//DTD SVG 1.1//EN" "http://www.w3.org/Graphics/SVG/1.1/DTD/svg11.dtd"><svg t="1584781006128" class="icon" viewBox="0 0 1024 1024" version="1.1" xmlns="http://www.w3.org/2000/svg" p-id="2440" xmlns:xlink="http://www.w3.org/1999/xlink" width="32" height="32"><defs><style type="text/css"></style></defs><path d="M807.936 449.536l-12.288-11.264c19.456-24.576 61.44-83.968 51.2-132.096-2.048-10.24-6.144-18.432-12.288-26.624-5.12-22.528-20.48-39.936-47.104-51.2-84.992-36.864-172.032 70.656-179.2 78.848-9.216 9.216-214.016 220.16-253.952 264.192-29.696 33.792-61.44 60.416-86.016 81.92-38.912 33.792-67.584 58.368-65.536 84.992 1.024 9.216 5.12 17.408 12.288 25.6 1.024 15.36 12.288 29.696 34.816 44.032 17.408 11.264 43.008 21.504 75.776 21.504 44.032 0 99.328-19.456 166.912-80.896l25.6 23.552c0 1.024 1.024 1.024 1.024 2.048 5.12 8.192 14.336 13.312 23.552 14.336h4.096c8.192 0 15.36-3.072 22.528-9.216 7.168-6.144 11.264-15.36 12.288-25.6 2.048-20.48-10.24-38.912-28.672-41.984l-13.312-12.288c56.32-63.488 154.624-161.792 208.896-214.016l24.576 22.528c0 1.024 1.024 1.024 1.024 2.048 5.12 8.192 14.336 13.312 23.552 14.336h4.096c8.192 0 15.36-3.072 22.528-9.216 7.168-6.144 11.264-15.36 12.288-25.6 2.048-18.432-10.24-36.864-28.672-39.936z" fill="#F2EDEC" p-id="2441"></path><path d="M794.624 446.464l-32.768 39.936-94.208-88.064 31.744-39.936z" fill="#F4EEEB" p-id="2442"></path><path d="M761.856 494.592c-2.048 0-4.096-1.024-5.12-2.048l-95.232-88.064c-3.072-3.072-3.072-8.192-1.024-11.264l31.744-39.936c1.024-2.048 3.072-3.072 6.144-3.072 2.048 0 4.096 1.024 6.144 2.048l95.232 88.064c3.072 3.072 3.072 8.192 1.024 11.264L769.024 491.52c-2.048 2.048-4.096 3.072-7.168 3.072 1.024 0 1.024 0 0 0z m-82.944-96.256l82.944 76.8 21.504-26.624-82.944-76.8-21.504 26.624z" fill="#3B0005" p-id="2443"></path><path d="M770.049981 490.724962a26.624 30.72 6.794 1 0 7.268351-61.008562 26.624 30.72 6.794 1 0-7.268351 61.008562Z" fill="#27AF7B" p-id="2444"></path><path d="M773.12 498.688h-4.096c-9.216-1.024-17.408-6.144-23.552-14.336-5.12-8.192-7.168-17.408-6.144-27.648 1.024-10.24 6.144-19.456 12.288-25.6 7.168-7.168 16.384-10.24 25.6-9.216 18.432 2.048 31.744 21.504 29.696 41.984-1.024 10.24-6.144 19.456-12.288 25.6-5.12 6.144-13.312 9.216-21.504 9.216z m2.048-60.416c-4.096 0-8.192 2.048-11.264 5.12-4.096 4.096-7.168 9.216-7.168 15.36-1.024 6.144 1.024 12.288 4.096 16.384 3.072 4.096 7.168 7.168 11.264 7.168 4.096 1.024 9.216-1.024 13.312-4.096 4.096-4.096 7.168-9.216 7.168-15.36 1.024-12.288-5.12-23.552-15.36-24.576h-2.048z" fill="#3B0005" p-id="2445"></path><path d="M772.836183 467.338346a6.144 7.168 6.794 1 0 1.695948-14.235331 6.144 7.168 6.794 1 0-1.695948 14.235331Z" fill="#3B0005" p-id="2446"></path><path d="M539.648 709.632l-31.744 39.936-94.208-87.04 31.744-39.936z" fill="#F4EEEB" p-id="2447"></path><path d="M507.904 757.76c-2.048 0-4.096-1.024-5.12-2.048l-95.232-88.064c-3.072-3.072-3.072-8.192-1.024-11.264l31.744-39.936c1.024-2.048 3.072-3.072 6.144-3.072 2.048 0 4.096 1.024 6.144 2.048l95.232 88.064c3.072 3.072 3.072 8.192 1.024 11.264l-31.744 39.936c-2.048 2.048-4.096 3.072-7.168 3.072 1.024 0 0 0 0 0z m-83.968-96.256l82.944 76.8 21.504-26.624-82.944-76.8-21.504 26.624z" fill="#3B0005" p-id="2448"></path><path d="M516.619095 753.926884a26.624 30.72 6.794 1 0 7.268351-61.008562 26.624 30.72 6.794 1 0-7.268351 61.008562Z" fill="#27AF7B" p-id="2449"></path><path d="M519.168 761.856h-4.096c-9.216-1.024-17.408-6.144-23.552-14.336-5.12-8.192-7.168-17.408-6.144-27.648 1.024-10.24 6.144-19.456 12.288-25.6 7.168-7.168 16.384-10.24 25.6-9.216 18.432 2.048 31.744 21.504 29.696 41.984-1.024 10.24-6.144 19.456-12.288 25.6-6.144 6.144-13.312 9.216-21.504 9.216z m2.048-60.416c-4.096 0-8.192 2.048-11.264 5.12-4.096 4.096-7.168 9.216-7.168 15.36-1.024 6.144 1.024 12.288 4.096 16.384 3.072 4.096 7.168 7.168 11.264 7.168 4.096 1.024 9.216-1.024 13.312-4.096 4.096-4.096 7.168-9.216 7.168-15.36 1.024-12.288-5.12-23.552-15.36-24.576h-2.048z" fill="#3B0005" p-id="2450"></path><path d="M519.405296 730.540269a6.144 7.168 6.794 1 0 1.695949-14.235331 6.144 7.168 6.794 1 0-1.695949 14.235331Z" fill="#3B0005" p-id="2451"></path><path d="M599.04 311.296S386.048 530.432 345.088 575.488c-97.28 109.568-204.8 144.384-118.784 198.656 91.136 57.344 197.632-13.312 277.504-104.448 78.848-90.112 247.808-252.928 247.808-252.928s124.928-136.192 17.408-182.272c-81.92-34.816-169.984 76.8-169.984 76.8z" fill="#F4EEEB" p-id="2452"></path><path d="M297.984 802.816c-32.768 0-58.368-10.24-75.776-21.504-22.528-14.336-33.792-28.672-34.816-44.032-2.048-26.624 26.624-51.2 65.536-84.992 25.6-21.504 56.32-49.152 86.016-81.92C378.88 525.312 583.68 315.392 592.896 305.152c6.144-8.192 94.208-114.688 179.2-78.848 26.624 11.264 41.984 28.672 47.104 51.2 13.312 61.44-58.368 140.288-61.44 144.384-2.048 2.048-169.984 163.84-247.808 252.928-87.04 100.352-158.72 128-211.968 128zM735.232 235.52c-65.536 0-129.024 78.848-130.048 79.872l-1.024 1.024c-2.048 2.048-214.016 219.136-253.952 264.192-30.72 33.792-62.464 61.44-88.064 83.968-34.816 29.696-61.44 53.248-60.416 71.68 1.024 10.24 10.24 20.48 27.648 31.744 43.008 26.624 134.144 49.152 266.24-102.4 78.848-89.088 246.784-251.904 247.808-252.928 0 0 68.608-75.776 57.344-129.024-4.096-17.408-16.384-30.72-37.888-39.936-7.168-6.144-17.408-8.192-27.648-8.192z" fill="#3B0005" p-id="2453"></path><path d="M586.752 285.696S373.76 504.832 332.8 549.888C235.52 659.456 129.024 694.272 215.04 748.544c91.136 57.344 197.632-13.312 277.504-104.448 78.848-90.112 247.808-252.928 247.808-252.928S865.28 254.976 757.76 208.896c-82.944-34.816-171.008 76.8-171.008 76.8z" fill="#2ABC88" p-id="2454"></path><path d="M286.72 777.216c-32.768 0-58.368-10.24-75.776-21.504-22.528-14.336-33.792-28.672-34.816-44.032-2.048-26.624 26.624-51.2 65.536-84.992 25.6-21.504 56.32-49.152 86.016-81.92 39.936-44.032 244.736-254.976 253.952-264.192 6.144-8.192 94.208-114.688 179.2-78.848 26.624 11.264 41.984 28.672 47.104 51.2 13.312 61.44-58.368 140.288-61.44 144.384-2.048 2.048-169.984 163.84-247.808 252.928-88.064 99.328-159.744 126.976-211.968 126.976z m436.224-566.272c-65.536 0-129.024 78.848-130.048 79.872l-1.024 1.024c-1.024 2.048-212.992 219.136-251.904 263.168-30.72 33.792-62.464 61.44-88.064 83.968-34.816 29.696-61.44 53.248-60.416 71.68 1.024 10.24 10.24 20.48 27.648 31.744 43.008 26.624 134.144 49.152 266.24-102.4 78.848-89.088 246.784-251.904 247.808-252.928 0 0 68.608-75.776 57.344-129.024-4.096-17.408-16.384-30.72-37.888-39.936-9.216-6.144-19.456-7.168-29.696-7.168z" fill="#3B0005" p-id="2455"></path><path d="M505.856 563.2l-61.44-1.024-24.576-37.888c-1.024-1.024-2.048-2.048-3.072-2.048-1.024 0-2.048 0-3.072 1.024l-9.216 9.216c-1.024 1.024-1.024 3.072 0 5.12l16.384 23.552-38.912-1.024c-1.024 0-2.048 0-3.072 1.024l-9.216 9.216c-1.024 1.024-2.048 3.072-1.024 4.096s2.048 2.048 4.096 2.048l58.368 1.024 25.6 38.912c1.024 1.024 2.048 2.048 3.072 2.048 1.024 0 2.048 0 3.072-1.024l8.192-9.216c1.024-1.024 1.024-3.072 0-5.12l-17.408-25.6 41.984 2.048c1.024 0 2.048 0 3.072-1.024l8.192-9.216c1.024-1.024 1.024-3.072 1.024-4.096s-1.024-2.048-2.048-2.048zM538.624 529.408l-72.704-33.792 13.312-14.336c1.024-1.024 1.024-2.048 1.024-3.072s-1.024-2.048-2.048-3.072l-10.24-5.12c-2.048-1.024-3.072 0-5.12 1.024l-41.984 45.056c-1.024 0-1.024 2.048-1.024 3.072s1.024 2.048 2.048 3.072l10.24 5.12c2.048 1.024 3.072 0 5.12-1.024l15.36-16.384 75.776 34.816h2.048c1.024 0 2.048 0 3.072-1.024l7.168-7.168c1.024-1.024 1.024-2.048 1.024-3.072-1.024-2.048-2.048-3.072-3.072-4.096zM606.208 456.704l-10.24-5.12c-2.048-1.024-3.072 0-5.12 1.024l-29.696 31.744-21.504-10.24 24.576-26.624c1.024-1.024 1.024-2.048 1.024-3.072 0-1.024-1.024-2.048-2.048-3.072l-10.24-5.12c-2.048-1.024-3.072 0-5.12 1.024l-26.624 28.672-19.456-9.216 26.624-28.672c1.024-1.024 1.024-2.048 1.024-4.096s-1.024-2.048-2.048-3.072l-10.24-5.12c-2.048-1.024-3.072 0-5.12 1.024l-37.888 40.96c-1.024 1.024-1.024 2.048-1.024 3.072 0 1.024 1.024 2.048 2.048 3.072l89.088 40.96h2.048c1.024 0 2.048 0 3.072-1.024l37.888-40.96c1.024-1.024 1.024-2.048 1.024-3.072 0-1.024-1.024-3.072-2.048-3.072zM627.712 434.176l-32.768-15.36 12.288-13.312c8.192-8.192 7.168-15.36 5.12-19.456-2.048-3.072-4.096-6.144-6.144-8.192-2.048-2.048-4.096-3.072-7.168-5.12-1.024 0-1.024-1.024-1.024-1.024h-1.024s-1.024 0-2.048-1.024c-8.192-3.072-16.384-5.12-24.576-4.096-8.192 1.024-15.36 4.096-21.504 10.24l-23.552 25.6c-1.024 1.024-1.024 2.048-1.024 3.072 0 1.024 1.024 2.048 2.048 3.072l89.088 40.96h2.048c1.024 0 2.048 0 3.072-1.024l7.168-7.168c1.024-1.024 1.024-2.048 1.024-3.072s0-4.096-1.024-4.096zM553.984 399.36l10.24-11.264c2.048-2.048 5.12-4.096 8.192-5.12 3.072-1.024 7.168 0 11.264 2.048 3.072 1.024 5.12 3.072 6.144 3.072 1.024 1.024 1.024 1.024 1.024 2.048 0 2.048-1.024 4.096-3.072 6.144L575.488 409.6l-21.504-10.24z" fill="#3B0005" p-id="2456"></path><path d="M381.952 599.04s-30.72 28.672-58.368 58.368l-3.072 3.072-17.408 15.36c-11.264 7.168-19.456 8.192-19.456 8.192-4.096 0-8.192 3.072-8.192 8.192 0 4.096 3.072 8.192 8.192 8.192 3.072 0 24.576-1.024 53.248-31.744 26.624-28.672 56.32-57.344 57.344-57.344 3.072-3.072 3.072-8.192 0-11.264-4.096-4.096-9.216-4.096-12.288-1.024zM723.968 262.144c-4.096-2.048-9.216 0-11.264 4.096 0 0-9.216 18.432-22.528 30.72-14.336 13.312-59.392 60.416-60.416 62.464-3.072 3.072-3.072 8.192 0 11.264 2.048 1.024 4.096 2.048 5.12 2.048 2.048 0 4.096-1.024 6.144-3.072 0 0 46.08-49.152 59.392-61.44 15.36-14.336 25.6-34.816 26.624-35.84 3.072-3.072 1.024-8.192-3.072-10.24z" fill="#3B0005" p-id="2457"></path></svg>