<?xml version="1.0" standalone="no"?><!DOCTYPE svg PUBLIC "-//W3C//DTD SVG 1.1//EN" "http://www.w3.org/Graphics/SVG/1.1/DTD/svg11.dtd"><svg t="1584780983061" class="icon" viewBox="0 0 1024 1024" version="1.1" xmlns="http://www.w3.org/2000/svg" p-id="1685" xmlns:xlink="http://www.w3.org/1999/xlink" width="32" height="32"><defs><style type="text/css"></style></defs><path d="M684.032 557.056c-2.048-21.504-1.024-63.488-1.024-111.616 1.024-75.776 1.024-160.768-5.12-210.944-7.168-60.416-19.456-100.352-26.624-118.784-4.096-10.24-12.288-18.432-23.552-21.504-53.248-16.384-177.152 9.216-228.352 20.48-10.24 2.048-17.408 9.216-19.456 18.432-1.024 6.144-3.072 14.336-6.144 25.6-12.288 57.344-29.696 175.104-13.312 310.272 22.528 184.32 22.528 257.024 22.528 257.024 0 3.072-3.072 80.896 4.096 128l5.12 40.96c0 3.072 2.048 5.12 5.12 6.144 2.048 1.024 38.912 15.36 63.488 0 2.048-1.024 3.072-3.072 4.096-5.12 3.072-15.36 7.168-34.816 9.216-38.912 5.12-5.12 10.24-14.336 15.36-61.44 2.048-23.552 4.096-60.416 5.12-102.4 2.048-61.44 4.096-130.048 11.264-182.272 3.072-26.624 6.144-45.056 8.192-59.392 11.264 45.056 24.576 92.16 33.792 129.024l1.024 3.072c20.48 78.848 41.984 193.536 47.104 257.024 4.096 45.056 9.216 62.464 14.336 68.608l5.12 39.936c0 3.072 3.072 6.144 6.144 7.168 9.216 3.072 17.408 4.096 24.576 4.096 15.36 0 27.648-5.12 32.768-8.192 3.072-1.024 6.144-4.096 7.168-7.168v-2.048c0-4.096 2.048-16.384 6.144-56.32 8.192-68.608-4.096-266.24-8.192-329.728z" fill="#F2EDEC" p-id="1686"></path><path d="M658.432 530.432c-2.048-21.504-1.024-63.488-1.024-111.616 1.024-75.776 1.024-160.768-5.12-210.944-7.168-60.416-19.456-100.352-26.624-118.784-4.096-10.24-12.288-18.432-23.552-21.504-53.248-16.384-177.152 9.216-228.352 20.48-10.24 2.048-17.408 9.216-19.456 18.432-1.024 6.144-3.072 14.336-6.144 25.6-12.288 57.344-29.696 175.104-13.312 310.272 22.528 184.32 22.528 257.024 22.528 257.024 0 3.072-3.072 80.896 4.096 128l5.12 40.96c0 3.072 2.048 5.12 5.12 6.144 2.048 1.024 38.912 15.36 63.488 0 2.048-1.024 3.072-3.072 4.096-5.12 3.072-15.36 7.168-34.816 9.216-38.912 5.12-5.12 10.24-14.336 15.36-61.44 2.048-23.552 4.096-60.416 5.12-102.4 2.048-61.44 4.096-130.048 11.264-182.272 3.072-26.624 6.144-45.056 8.192-59.392 11.264 45.056 24.576 92.16 33.792 129.024l1.024 3.072c20.48 78.848 41.984 193.536 47.104 257.024 4.096 45.056 9.216 62.464 14.336 68.608l5.12 39.936c0 3.072 3.072 6.144 6.144 7.168 9.216 3.072 17.408 4.096 24.576 4.096 15.36 0 27.648-5.12 32.768-8.192 3.072-1.024 6.144-4.096 7.168-7.168v-2.048c0-4.096 2.048-16.384 6.144-56.32 7.168-68.608-4.096-266.24-8.192-329.728zM377.856 104.448c79.872-18.432 179.2-32.768 220.16-20.48 6.144 2.048 11.264 6.144 13.312 11.264 1.024 2.048 1.024 4.096 2.048 6.144-77.824-14.336-204.8 12.288-244.736 21.504 1.024-4.096 2.048-8.192 3.072-11.264 0-4.096 3.072-6.144 6.144-7.168z m60.416 25.6c5.12 49.152 10.24 107.52 15.36 146.432l-1.024-1.024-1.024-1.024c-6.144-4.096-13.312-22.528-14.336-32.768l-14.336-113.664c5.12-1.024 9.216-2.048 14.336-2.048l1.024 4.096z m-14.336 733.184c-14.336 6.144-32.768 1.024-41.984-1.024l-3.072-28.672c8.192 4.096 18.432 8.192 31.744 8.192 6.144 0 12.288-1.024 18.432-2.048-2.048 8.192-4.096 17.408-5.12 23.552z m39.936-379.904c-7.168 52.224-9.216 121.856-11.264 183.296-1.024 41.984-2.048 78.848-5.12 101.376-4.096 40.96-9.216 49.152-10.24 51.2-35.84 14.336-55.296-3.072-60.416-8.192-4.096-46.08-2.048-109.568-2.048-110.592 0-3.072 1.024-73.728-22.528-260.096-16.384-129.024 0-242.688 12.288-300.032 7.168-2.048 23.552-5.12 43.008-9.216l14.336 112.64c1.024 11.264 8.192 34.816 20.48 44.032l17.408 17.408c3.072 15.36 10.24 45.056 19.456 81.92-2.048 7.168-6.144 28.672-15.36 96.256z m122.88 330.752c-5.12-64.512-26.624-181.248-48.128-260.096l-1.024-3.072c-20.48-75.776-57.344-218.112-64.512-250.88-6.144-31.744-13.312-109.568-19.456-171.008l1.024-6.144c33.792-5.12 71.68-9.216 106.496-9.216 5.12 3.072 39.936 31.744 40.96 244.736 0 63.488 4.096 131.072 9.216 196.608 2.048 37.888 5.12 74.752 6.144 108.544 4.096 108.544 10.24 193.536 12.288 211.968-15.36 3.072-27.648-1.024-30.72-2.048-3.072-4.096-8.192-16.384-12.288-59.392z m57.344 99.328c-6.144 3.072-19.456 8.192-38.912 4.096l-3.072-26.624c4.096 1.024 9.216 1.024 14.336 1.024 9.216 0 19.456-2.048 29.696-6.144-1.024 13.312-2.048 21.504-2.048 27.648z m6.144-54.272c0 3.072-1.024 5.12-1.024 8.192-1.024 1.024-3.072 2.048-4.096 2.048-2.048-24.576-7.168-105.472-11.264-206.848-1.024-34.816-4.096-70.656-6.144-108.544-4.096-64.512-8.192-132.096-9.216-195.584 0-155.648-19.456-218.112-34.816-243.712 13.312 1.024 25.6 2.048 35.84 5.12 6.144 21.504 13.312 51.2 17.408 91.136 6.144 49.152 5.12 137.216 4.096 208.896 0 48.128-1.024 90.112 1.024 112.64 3.072 50.176 15.36 257.024 8.192 326.656z" fill="#3B0005" p-id="1687"></path><path d="M378.88 833.536l3.072 28.672c8.192 3.072 27.648 7.168 41.984 1.024 1.024-6.144 3.072-15.36 5.12-24.576-7.168 2.048-13.312 2.048-18.432 2.048-12.288 1.024-23.552-3.072-31.744-7.168z" fill="#FFFFFF" p-id="1688"></path><path d="M616.448 663.552c-1.024-33.792-4.096-70.656-6.144-108.544-4.096-65.536-8.192-133.12-9.216-196.608-1.024-212.992-35.84-241.664-40.96-244.736-34.816 0-72.704 4.096-106.496 9.216l1.024 5.12c6.144 61.44 13.312 139.264 19.456 171.008 6.144 32.768 44.032 175.104 64.512 250.88l1.024 3.072c20.48 78.848 41.984 195.584 48.128 260.096 4.096 43.008 8.192 55.296 10.24 58.368 4.096 1.024 15.36 5.12 30.72 2.048-2.048-16.384-8.192-101.376-12.288-209.92zM441.344 287.744c-11.264-9.216-19.456-32.768-20.48-44.032l-14.336-112.64c-20.48 4.096-35.84 7.168-43.008 9.216-11.264 57.344-28.672 171.008-12.288 300.032 23.552 185.344 22.528 257.024 22.528 260.096 0 1.024-3.072 64.512 2.048 110.592 5.12 5.12 24.576 22.528 60.416 8.192 2.048-2.048 6.144-10.24 10.24-51.2 2.048-23.552 4.096-59.392 5.12-101.376 2.048-61.44 4.096-131.072 11.264-183.296 9.216-67.584 13.312-89.088 14.336-96.256-9.216-35.84-16.384-66.56-19.456-81.92l-16.384-17.408z" fill="#0379F5" p-id="1689"></path><path d="M451.584 274.432l1.024 1.024 1.024 1.024c-5.12-38.912-11.264-97.28-15.36-146.432v-4.096c-5.12 1.024-9.216 2.048-14.336 2.048l14.336 113.664c1.024 10.24 8.192 28.672 13.312 32.768z" fill="#0379F5" p-id="1690"></path><path d="M602.112 890.88l3.072 25.6c19.456 4.096 32.768-1.024 38.912-4.096 0-6.144 1.024-14.336 2.048-26.624-11.264 4.096-21.504 6.144-29.696 6.144-5.12 0-10.24 0-14.336-1.024zM370.688 111.616c-1.024 3.072-2.048 7.168-3.072 11.264 40.96-9.216 166.912-34.816 244.736-21.504-1.024-2.048-1.024-4.096-2.048-6.144-2.048-5.12-7.168-10.24-13.312-11.264-40.96-12.288-140.288 3.072-220.16 20.48-2.048 1.024-5.12 3.072-6.144 7.168z" fill="#FFFFFF" p-id="1691"></path><path d="M617.472 358.4c0 63.488 4.096 130.048 9.216 195.584 2.048 37.888 5.12 74.752 6.144 108.544 4.096 101.376 10.24 182.272 11.264 206.848 1.024-1.024 3.072-2.048 4.096-2.048 0-2.048 1.024-5.12 1.024-8.192 8.192-69.632-4.096-275.456-8.192-327.68-2.048-22.528-1.024-64.512-1.024-112.64 1.024-70.656 1.024-159.744-4.096-208.896-5.12-39.936-11.264-69.632-17.408-91.136-11.264-2.048-22.528-4.096-35.84-5.12 15.36 26.624 34.816 89.088 34.816 244.736zM437.248 819.2c2.048-2.048 6.144-10.24 11.264-51.2 2.048-23.552 4.096-59.392 5.12-101.376 2.048-61.44 4.096-131.072 11.264-183.296 9.216-67.584 13.312-89.088 14.336-96.256-9.216-35.84-16.384-66.56-19.456-81.92l-22.528-23.552s-9.216 106.496-12.288 198.656c-4.096 110.592-5.12 234.496-6.144 282.624-1.024 38.912-2.048 63.488-19.456 58.368 0 0 8.192 2.048 17.408 1.024 6.144 2.048 14.336-1.024 20.48-3.072z" fill="#0A66EA" p-id="1692"></path></svg>