<?xml version="1.0" standalone="no"?><!DOCTYPE svg PUBLIC "-//W3C//DTD SVG 1.1//EN" "http://www.w3.org/Graphics/SVG/1.1/DTD/svg11.dtd"><svg t="1584781014099" class="icon" viewBox="0 0 1024 1024" version="1.1" xmlns="http://www.w3.org/2000/svg" p-id="2598" xmlns:xlink="http://www.w3.org/1999/xlink" width="32" height="32"><defs><style type="text/css"></style></defs><path d="M713.728 282.624v-1.024c4.096-15.36-9.216-30.72-29.696-36.864-9.216-2.048-18.432-2.048-26.624 0-9.216 3.072-15.36 9.216-17.408 16.384-62.464-9.216-125.952 2.048-182.272 34.816-67.584 38.912-117.76 104.448-135.168 181.248-6.144 27.648-9.216 55.296-7.168 82.944l-118.784 78.848-6.144 3.072c-19.456 10.24-31.744 27.648-38.912 51.2-9.216 34.816-4.096 60.416 15.36 71.68 32.768 17.408 91.136-13.312 153.6-81.92 20.48 13.312 44.032 29.696 65.536 45.056 43.008 30.72 83.968 59.392 104.448 67.584 5.12 2.048 10.24 4.096 14.336 6.144 18.432 8.192 37.888 16.384 61.44 16.384 21.504 0 46.08-8.192 75.776-30.72C705.536 737.28 766.976 696.32 768 696.32c3.072-2.048 4.096-5.12 3.072-8.192 12.288 4.096 22.528 7.168 30.72 9.216 4.096 1.024 7.168 2.048 11.264 2.048 14.336 0 27.648-8.192 34.816-20.48 15.36-28.672 25.6-59.392 30.72-92.16 21.504-129.024-49.152-252.928-164.864-304.128zM430.08 399.36c38.912-64.512 95.232-102.4 135.168-122.88 2.048 0 4.096-1.024 6.144-1.024-40.96 19.456-100.352 57.344-141.312 123.904z m-91.136 80.896c10.24-43.008 30.72-81.92 58.368-113.664-28.672 32.768-48.128 72.704-58.368 115.712-5.12 21.504-7.168 44.032-6.144 66.56-1.024 0-1.024 0-2.048 1.024 1.024-23.552 3.072-47.104 8.192-69.632z" fill="#F2EDEC" p-id="2599"></path><path d="M479.232 430.08c-4.096 7.168-4.096 14.336 0 20.48 4.096 5.12 10.24 7.168 17.408 6.144l29.696-8.192 18.432 19.456c3.072 3.072 7.168 5.12 12.288 5.12 1.024 0 3.072 0 4.096-1.024 7.168-2.048 13.312-8.192 15.36-15.36l8.192-30.72c0-1.024 1.024-2.048 2.048-3.072l27.648-15.36c7.168-4.096 11.264-11.264 11.264-19.456 0-6.144-4.096-11.264-9.216-14.336l-24.576-11.264-1.024-29.696c0-7.168-4.096-12.288-10.24-14.336-7.168-3.072-14.336-1.024-20.48 5.12L537.6 348.16c-1.024 1.024-2.048 1.024-3.072 1.024l-28.672-2.048c-7.168-1.024-13.312 3.072-17.408 8.192-4.096 6.144-5.12 12.288-3.072 18.432l10.24 25.6s0 1.024-1.024 2.048L479.232 430.08z m32.768-36.864l-10.24-25.6s0-1.024 1.024-2.048 2.048-2.048 3.072-2.048l28.672 2.048c6.144 1.024 11.264-2.048 15.36-6.144l23.552-23.552c1.024-1.024 2.048-1.024 2.048-2.048l1.024 29.696c0 6.144 4.096 12.288 9.216 14.336l24.576 10.24c0 1.024 0 3.072-2.048 4.096L579.584 409.6c-5.12 3.072-9.216 8.192-10.24 13.312l-8.192 30.72c-1.024 3.072-3.072 4.096-4.096 4.096l-18.432-19.456c-3.072-3.072-7.168-5.12-12.288-5.12-1.024 0-3.072 0-4.096 1.024l-29.696 6.144s0-1.024 1.024-2.048l16.384-27.648c3.072-6.144 4.096-12.288 2.048-17.408z" fill="#3B0005" p-id="2600"></path><path d="M706.56 246.784V245.76c4.096-15.36-9.216-30.72-29.696-36.864-9.216-2.048-18.432-2.048-26.624 0-9.216 3.072-15.36 9.216-17.408 16.384-62.464-9.216-125.952 2.048-182.272 34.816-67.584 37.888-116.736 104.448-134.144 180.224-6.144 27.648-9.216 55.296-7.168 82.944l-118.784 78.848-6.144 3.072c-19.456 10.24-31.744 27.648-38.912 51.2-9.216 34.816-4.096 60.416 15.36 71.68 32.768 17.408 91.136-13.312 153.6-81.92 20.48 13.312 44.032 29.696 65.536 45.056 43.008 30.72 83.968 59.392 104.448 67.584 5.12 2.048 10.24 4.096 14.336 6.144 18.432 8.192 37.888 16.384 61.44 16.384 21.504 0 46.08-8.192 75.776-30.72 63.488-50.176 124.928-91.136 125.952-91.136 3.072-2.048 4.096-5.12 3.072-8.192 12.288 4.096 22.528 7.168 30.72 9.216 4.096 1.024 7.168 2.048 11.264 2.048 14.336 0 27.648-8.192 34.816-20.48 15.36-28.672 25.6-59.392 30.72-92.16C891.904 421.888 822.272 296.96 706.56 246.784z m19.456 373.76c-16.384-6.144-34.816-12.288-53.248-20.48-16.384-7.168-31.744-14.336-46.08-21.504C709.632 431.104 694.272 295.936 686.08 256c1.024 1.024 3.072 1.024 4.096 2.048 18.432 12.288 140.288 108.544 35.84 362.496zM611.328 239.616c19.456 1.024 38.912 5.12 57.344 10.24 4.096 18.432 32.768 164.864-56.32 321.536-3.072-1.024-5.12-3.072-8.192-4.096-47.104-23.552-91.136-46.08-166.912-60.416-16.384-3.072-30.72-4.096-43.008-4.096C413.696 295.936 593.92 243.712 611.328 239.616z m87.04 3.072zM655.36 224.256c5.12-2.048 11.264-1.024 17.408 0 10.24 3.072 17.408 9.216 18.432 14.336-2.048-1.024-5.12-2.048-7.168-3.072-4.096-2.048-8.192-3.072-13.312-5.12-5.12-1.024-10.24-2.048-14.336-3.072-2.048 0-4.096-1.024-6.144-1.024 1.024 0 3.072-1.024 5.12-2.048zM331.776 444.416c17.408-71.68 63.488-134.144 128-171.008 32.768-18.432 67.584-29.696 103.424-33.792-62.464 29.696-171.008 102.4-186.368 263.168-24.576 1.024-41.984 6.144-52.224 10.24 0-23.552 2.048-46.08 7.168-68.608zM168.96 713.728c-12.288-6.144-15.36-26.624-8.192-52.224 5.12-19.456 15.36-32.768 30.72-40.96 10.24-5.12 22.528-8.192 36.864-8.192 11.264 0 23.552 2.048 36.864 6.144 8.192 2.048 20.48 9.216 35.84 19.456-63.488 67.584-111.616 87.04-132.096 75.776zM625.664 737.28c-52.224 41.984-84.992 27.648-120.832 12.288l-15.36-6.144c-18.432-7.168-60.416-36.864-100.352-65.536-50.176-34.816-97.28-68.608-119.808-75.776-13.312-4.096-26.624-6.144-38.912-6.144l102.4-68.608c16.384-6.144 50.176-13.312 100.352-4.096 73.728 13.312 116.736 35.84 162.816 58.368 21.504 11.264 44.032 22.528 70.656 32.768 21.504 9.216 41.984 16.384 60.416 22.528 8.192 3.072 16.384 6.144 23.552 8.192-9.216 7.168-66.56 46.08-124.928 92.16z m230.4-190.464c-5.12 30.72-14.336 59.392-28.672 87.04-5.12 10.24-16.384 14.336-26.624 11.264-13.312-4.096-33.792-10.24-58.368-19.456 75.776-186.368 33.792-292.864-4.096-344.064 84.992 56.32 134.144 159.744 117.76 265.216z" fill="#3B0005" p-id="2601"></path><path d="M728.064 637.952c-18.432-6.144-38.912-14.336-60.416-22.528-26.624-10.24-49.152-22.528-70.656-32.768-46.08-23.552-89.088-45.056-162.816-58.368-50.176-9.216-83.968-2.048-100.352 4.096l-102.4 68.608c12.288 0 25.6 2.048 38.912 6.144 22.528 7.168 69.632 40.96 119.808 75.776 39.936 28.672 81.92 58.368 100.352 65.536l15.36 6.144c34.816 15.36 67.584 29.696 120.832-12.288 58.368-46.08 115.712-84.992 124.928-91.136-7.168-3.072-15.36-6.144-23.552-9.216z" fill="#FF1240" p-id="2602"></path><path d="M228.352 611.328c-14.336 0-26.624 3.072-36.864 8.192-15.36 8.192-25.6 21.504-30.72 40.96-7.168 26.624-4.096 46.08 8.192 52.224 20.48 11.264 68.608-8.192 132.096-76.8-15.36-9.216-27.648-16.384-35.84-19.456-13.312-3.072-25.6-5.12-36.864-5.12z" fill="#F20000" p-id="2603"></path><path d="M562.176 238.592c-35.84 4.096-70.656 16.384-103.424 34.816-63.488 37.888-109.568 100.352-125.952 172.032-5.12 22.528-7.168 45.056-6.144 68.608 10.24-4.096 27.648-9.216 52.224-11.264 12.288-159.744 119.808-234.496 183.296-264.192z" fill="#F4EEEB" p-id="2604"></path><path d="M522.24 432.128c2.048 0 3.072-1.024 4.096-1.024 5.12 0 9.216 2.048 12.288 5.12l18.432 19.456s3.072-1.024 4.096-4.096l8.192-30.72c1.024-5.12 5.12-10.24 10.24-13.312l27.648-15.36c2.048-1.024 3.072-3.072 2.048-4.096l-24.576-10.24c-6.144-2.048-9.216-8.192-9.216-14.336l-1.024-29.696s-1.024 0-2.048 2.048l-23.552 23.552c-4.096 4.096-10.24 7.168-15.36 6.144l-28.672-2.048c-1.024 0-2.048 1.024-3.072 2.048-1.024 1.024-1.024 2.048-1.024 2.048l10.24 25.6c2.048 5.12 2.048 11.264-2.048 17.408l-16.384 27.648c-1.024 1.024-1.024 2.048-1.024 2.048l30.72-8.192z" fill="#FFFFFF" p-id="2605"></path><path d="M393.216 502.784c13.312 0 27.648 2.048 43.008 4.096 75.776 14.336 119.808 36.864 166.912 60.416 3.072 1.024 5.12 3.072 8.192 4.096 89.088-156.672 60.416-303.104 56.32-321.536-19.456-6.144-38.912-9.216-57.344-10.24-16.384 4.096-196.608 56.32-217.088 263.168z m86.016-72.704l16.384-27.648c1.024-1.024 1.024-2.048 1.024-2.048l-10.24-25.6c-2.048-6.144-1.024-13.312 3.072-18.432 4.096-6.144 11.264-9.216 17.408-8.192l28.672 2.048c1.024 0 2.048 0 3.072-1.024l23.552-23.552c6.144-6.144 13.312-8.192 20.48-5.12 6.144 2.048 10.24 8.192 10.24 14.336l1.024 29.696 24.576 11.264c5.12 2.048 9.216 8.192 9.216 14.336 0 7.168-4.096 15.36-11.264 19.456l-27.648 15.36c-1.024 1.024-2.048 2.048-2.048 3.072l-8.192 30.72c-2.048 7.168-8.192 13.312-15.36 15.36-1.024 0-3.072 1.024-4.096 1.024-4.096 0-9.216-2.048-12.288-5.12L528.384 450.56l-29.696 8.192c-7.168 2.048-13.312 0-17.408-6.144-6.144-8.192-6.144-16.384-2.048-22.528z" fill="#FF1240" p-id="2606"></path><path d="M741.376 625.664c24.576 8.192 45.056 15.36 58.368 19.456 10.24 3.072 21.504-2.048 26.624-11.264 14.336-26.624 24.576-56.32 28.672-87.04C872.448 441.344 823.296 337.92 737.28 281.6c38.912 51.2 79.872 157.696 4.096 344.064z" fill="#F20000" p-id="2607"></path><path d="M669.696 231.424c5.12 1.024 9.216 3.072 13.312 5.12 2.048 1.024 5.12 2.048 7.168 3.072 0-5.12-7.168-11.264-18.432-14.336-6.144-2.048-12.288-2.048-17.408 0-3.072 1.024-5.12 2.048-6.144 3.072 2.048 0 4.096 1.024 6.144 1.024 5.12 0 10.24 1.024 15.36 2.048zM699.392 242.688h-1.024z" fill="#FF1240" p-id="2608"></path><path d="M687.104 256c7.168 40.96 23.552 176.128-59.392 322.56 14.336 7.168 29.696 14.336 46.08 21.504 18.432 7.168 36.864 14.336 53.248 20.48 103.424-252.928-17.408-350.208-34.816-362.496-3.072-1.024-4.096-2.048-5.12-2.048z" fill="#F4EEEB" p-id="2609"></path><path d="M625.664 737.28c58.368-46.08 115.712-84.992 124.928-91.136-7.168-2.048-15.36-5.12-23.552-8.192-18.432-6.144-38.912-14.336-60.416-22.528-23.552-9.216-43.008-19.456-62.464-28.672-35.84 32.768-113.664 100.352-166.912 125.952 22.528 15.36 41.984 27.648 52.224 31.744l15.36 6.144c35.84 14.336 68.608 28.672 120.832-13.312z" fill="#F20000" p-id="2610"></path></svg>