<?xml version="1.0" standalone="no"?><!DOCTYPE svg PUBLIC "-//W3C//DTD SVG 1.1//EN" "http://www.w3.org/Graphics/SVG/1.1/DTD/svg11.dtd"><svg t="1584781018204" class="icon" viewBox="0 0 1024 1024" version="1.1" xmlns="http://www.w3.org/2000/svg" p-id="2751" xmlns:xlink="http://www.w3.org/1999/xlink" width="32" height="32"><defs><style type="text/css"></style></defs><path d="M820.224 419.84L275.456 278.528c-19.456-5.12-40.96 4.096-49.152 22.528l-46.08 94.208c-8.192 16.384-9.216 35.84-1.024 53.248 6.144 14.336 17.408 23.552 30.72 35.84 19.456 16.384 46.08 39.936 72.704 89.088 26.624 48.128 34.816 88.064 40.96 116.736 4.096 19.456 7.168 34.816 14.336 47.104 9.216 15.36 22.528 25.6 39.936 29.696l117.76 30.72c5.12 1.024 11.264 2.048 16.384 2.048 11.264 0 22.528-3.072 32.768-9.216 12.288-7.168 22.528-19.456 35.84-33.792 19.456-22.528 46.08-53.248 92.16-81.92 48.128-30.72 81.92-37.888 106.496-43.008 18.432-4.096 32.768-7.168 45.056-16.384 14.336-11.264 23.552-28.672 24.576-47.104l5.12-104.448c0-20.48-14.336-38.912-33.792-44.032z" fill="#F2EDEC" p-id="2752"></path><path d="M818.176 366.592L273.408 225.28c-19.456-5.12-40.96 4.096-49.152 22.528l-46.08 94.208c-8.192 16.384-9.216 35.84-1.024 53.248 6.144 14.336 17.408 23.552 30.72 35.84 19.456 16.384 46.08 39.936 72.704 89.088 26.624 48.128 34.816 88.064 40.96 116.736 4.096 19.456 7.168 34.816 14.336 47.104 9.216 15.36 22.528 25.6 39.936 29.696l117.76 30.72c5.12 1.024 11.264 2.048 16.384 2.048 11.264 0 22.528-3.072 32.768-9.216 12.288-7.168 22.528-19.456 35.84-33.792 19.456-22.528 46.08-53.248 92.16-81.92 48.128-30.72 81.92-37.888 106.496-43.008 18.432-4.096 32.768-7.168 45.056-16.384 14.336-11.264 23.552-28.672 24.576-47.104l5.12-104.448c0-20.48-13.312-38.912-33.792-44.032zM262.144 240.64c2.048 0 4.096 0 6.144 1.024l544.768 141.312c12.288 3.072 20.48 14.336 19.456 27.648v7.168l-41.984-11.264h-1.024l-91.136-23.552h-1.024L235.52 262.144l3.072-7.168c4.096-9.216 14.336-14.336 23.552-14.336z m440.32 167.936l2.048-8.192 74.752 19.456-2.048 8.192c-1.024 3.072-3.072 6.144-6.144 8.192-3.072 2.048-7.168 2.048-10.24 1.024l-48.128-12.288c-3.072-1.024-6.144-3.072-8.192-6.144-2.048-3.072-3.072-6.144-2.048-10.24z m-509.952-59.392l34.816-71.68 460.8 119.808-2.048 7.168c-2.048 8.192-1.024 16.384 3.072 22.528 4.096 7.168 10.24 12.288 18.432 14.336l48.128 12.288c2.048 1.024 5.12 1.024 7.168 1.024 5.12 0 10.24-1.024 15.36-4.096 7.168-4.096 12.288-10.24 14.336-18.432l2.048-8.192 37.888 10.24-3.072 79.872c0 7.168-3.072 14.336-6.144 21.504-13.312-5.12-46.08-16.384-86.016-19.456-69.632-6.144-125.952 12.288-164.864 55.296-15.36 17.408-27.648 36.864-35.84 56.32l-140.288-36.864c2.048-21.504 2.048-44.032-4.096-66.56-13.312-55.296-53.248-100.352-117.76-128-36.864-16.384-71.68-22.528-86.016-24.576 0-8.192 1.024-15.36 4.096-22.528z m102.4 163.84c-28.672-52.224-56.32-75.776-76.8-94.208-13.312-11.264-22.528-19.456-26.624-30.72v-1.024c38.912 7.168 159.744 35.84 184.32 139.264 14.336 61.44-10.24 125.952-22.528 153.6-1.024-1.024-2.048-3.072-3.072-4.096-6.144-9.216-8.192-23.552-12.288-41.984-7.168-29.696-15.36-70.656-43.008-120.832z m201.728 216.064l-117.76-30.72c-5.12-1.024-9.216-3.072-13.312-6.144 7.168-15.36 21.504-47.104 27.648-86.016l137.216 35.84c-13.312 35.84-16.384 70.656-17.408 88.064-6.144 0-11.264 0-16.384-1.024z m275.456-166.912c-26.624 5.12-62.464 13.312-112.64 45.056-48.128 30.72-75.776 62.464-95.232 86.016-12.288 14.336-21.504 24.576-31.744 30.72-1.024 1.024-3.072 1.024-5.12 2.048 2.048-30.72 12.288-98.304 54.272-145.408 70.656-77.824 190.464-45.056 228.352-32.768l-1.024 1.024c-7.168 7.168-19.456 10.24-36.864 13.312z" fill="#3B0005" p-id="2753"></path><path d="M583.68 581.632C540.672 628.736 531.456 696.32 528.384 727.04c2.048-1.024 3.072-1.024 5.12-2.048 9.216-6.144 19.456-16.384 31.744-30.72 20.48-23.552 47.104-55.296 95.232-86.016 50.176-31.744 86.016-39.936 112.64-45.056 16.384-3.072 28.672-6.144 37.888-13.312l1.024-1.024c-37.888-12.288-157.696-45.056-228.352 32.768z" fill="#F4EEEB" p-id="2754"></path><path d="M393.216 608.256c-6.144 37.888-19.456 69.632-27.648 86.016 4.096 3.072 8.192 5.12 13.312 6.144l117.76 30.72c5.12 1.024 10.24 2.048 15.36 1.024 1.024-17.408 5.12-52.224 17.408-88.064l-136.192-35.84z" fill="#F20000" p-id="2755"></path><path d="M374.784 528.384c-24.576-103.424-145.408-132.096-184.32-139.264v1.024c5.12 11.264 14.336 19.456 26.624 30.72 20.48 17.408 48.128 41.984 76.8 94.208 27.648 50.176 35.84 91.136 41.984 120.832 4.096 18.432 7.168 32.768 12.288 41.984 1.024 2.048 2.048 3.072 3.072 4.096 14.336-27.648 37.888-92.16 23.552-153.6z" fill="#F4EEEB" p-id="2756"></path><path d="M700.416 384l91.136 23.552h1.024l41.984 11.264v-7.168c1.024-12.288-8.192-23.552-19.456-27.648L269.312 242.688c-2.048-1.024-4.096-1.024-6.144-1.024-10.24 0-19.456 6.144-23.552 15.36l-4.096 6.144 463.872 119.808c1.024 1.024 1.024 0 1.024 1.024zM703.488 419.84c2.048 3.072 5.12 5.12 8.192 6.144l48.128 12.288c3.072 1.024 7.168 0 10.24-1.024 3.072-2.048 5.12-5.12 6.144-8.192l2.048-8.192-74.752-19.456-1.024 8.192c-1.024 4.096 0 7.168 1.024 10.24z" fill="#FFFFFF" p-id="2757"></path><path d="M188.416 370.688c14.336 2.048 48.128 8.192 86.016 24.576C337.92 422.912 378.88 467.968 392.192 523.264c5.12 22.528 6.144 46.08 4.096 66.56l140.288 36.864c8.192-19.456 20.48-39.936 35.84-56.32 38.912-41.984 95.232-61.44 164.864-55.296 39.936 4.096 72.704 14.336 86.016 19.456 4.096-6.144 6.144-13.312 6.144-21.504l4.096-79.872-37.888-10.24-2.048 8.192c-2.048 8.192-7.168 14.336-14.336 18.432-5.12 3.072-10.24 4.096-15.36 4.096-2.048 0-5.12 0-7.168-1.024L708.608 440.32c-8.192-2.048-14.336-7.168-18.432-14.336-4.096-7.168-5.12-15.36-3.072-22.528l2.048-8.192-460.8-119.808-34.816 71.68c-4.096 9.216-5.12 16.384-5.12 23.552z" fill="#FF1240" p-id="2758"></path><path d="M829.44 515.072l4.096-79.872-37.888-10.24c-1.024 12.288-2.048 24.576-3.072 34.816-1.024 20.48-19.456 34.816-39.936 30.72-71.68-13.312-224.256-23.552-253.952 126.976l-103.424-26.624c1.024 12.288 1.024-11.264 0 0l140.288 36.864c8.192-19.456 20.48-39.936 35.84-56.32 38.912-41.984 95.232-61.44 164.864-55.296 39.936 4.096 72.704 14.336 86.016 19.456 4.096-6.144 6.144-13.312 7.168-20.48z" fill="#F20000" p-id="2759"></path><path d="M481.28 664.576l9.216-31.744-98.304-24.576c-3.072 19.456-10.24 43.008-15.36 57.344l63.488 16.384c18.432 4.096 35.84 0 40.96-17.408z" fill="#FF1240" p-id="2760"></path></svg>