<?xml version="1.0" standalone="no"?><!DOCTYPE svg PUBLIC "-//W3C//DTD SVG 1.1//EN" "http://www.w3.org/Graphics/SVG/1.1/DTD/svg11.dtd"><svg t="1584780991472" class="icon" viewBox="0 0 1024 1024" version="1.1" xmlns="http://www.w3.org/2000/svg" p-id="1985" xmlns:xlink="http://www.w3.org/1999/xlink" width="32" height="32"><defs><style type="text/css"></style></defs><path d="M740.352 240.64s0-1.024 0 0c-3.072-7.168-14.336-13.312-67.584-17.408-38.912-3.072-90.112-5.12-145.408-5.12-54.272 0-106.496 2.048-145.408 5.12-57.344 5.12-66.56 11.264-67.584 19.456-9.216 20.48-126.976 293.888-166.912 490.496 0 2.048 0 4.096 1.024 6.144 1.024 2.048 33.792 47.104 124.928 48.128 11.264 9.216 53.248 33.792 144.384 33.792 2.048 0 5.12-1.024 6.144-2.048 14.336 7.168 47.104 18.432 103.424 18.432s88.064-12.288 103.424-18.432c1.024 1.024 3.072 2.048 5.12 2.048 10.24 1.024 19.456 1.024 27.648 1.024 67.584 0 106.496-26.624 117.76-34.816 80.896-1.024 120.832-45.056 122.88-47.104 2.048-2.048 2.048-4.096 2.048-7.168-40.96-204.8-164.864-489.472-165.888-492.544z" fill="#F2EDEC" p-id="1986"></path><path d="M708.608 209.92c-3.072-7.168-14.336-13.312-67.584-17.408-38.912-3.072-90.112-5.12-145.408-5.12-54.272 0-106.496 2.048-145.408 5.12-57.344 5.12-66.56 11.264-67.584 19.456-9.216 20.48-126.976 293.888-166.912 490.496 0 2.048 0 4.096 1.024 6.144 1.024 2.048 33.792 47.104 124.928 48.128 11.264 9.216 53.248 33.792 144.384 33.792 2.048 0 5.12-1.024 6.144-2.048 14.336 7.168 47.104 18.432 103.424 18.432S583.68 794.624 599.04 788.48c1.024 1.024 3.072 2.048 5.12 2.048 10.24 1.024 19.456 1.024 27.648 1.024 67.584 0 106.496-26.624 117.76-34.816 80.896-1.024 120.832-45.056 122.88-47.104 2.048-2.048 2.048-4.096 2.048-7.168-40.96-203.776-164.864-489.472-165.888-492.544z m-427.008 50.176c20.48 3.072 101.376 15.36 221.184 15.36 117.76 0 190.464-11.264 209.92-15.36 7.168 17.408 16.384 39.936 26.624 65.536-11.264 5.12-68.608 25.6-241.664 25.6-175.104 0-231.424-20.48-241.664-25.6 9.216-24.576 17.408-47.104 25.6-65.536z m14.336-34.816c9.216 3.072 25.6 6.144 55.296 9.216 38.912 3.072 90.112 5.12 145.408 5.12s106.496-2.048 145.408-5.12c29.696-3.072 47.104-6.144 56.32-9.216 2.048 5.12 5.12 11.264 8.192 19.456-23.552 4.096-95.232 14.336-203.776 14.336-111.616 0-189.44-10.24-214.016-14.336 2.048-8.192 5.12-14.336 7.168-19.456z m200.704-21.504c90.112 0 153.6 5.12 182.272 10.24-28.672 5.12-93.184 10.24-182.272 10.24s-153.6-5.12-182.272-10.24c27.648-6.144 92.16-10.24 182.272-10.24z m258.048 536.576l-76.8-318.464c-1.024-4.096-5.12-7.168-10.24-6.144-4.096 1.024-7.168 5.12-6.144 10.24l76.8 318.464c-12.288 9.216-54.272 35.84-126.976 29.696l-43.008-332.8c-1.024-4.096-5.12-7.168-9.216-7.168-4.096 1.024-7.168 5.12-7.168 9.216l43.008 327.68c-10.24 5.12-41.984 18.432-98.304 18.432-57.344 0-88.064-13.312-98.304-18.432l43.008-336.896c1.024-4.096-3.072-8.192-7.168-9.216-4.096-1.024-8.192 3.072-9.216 7.168l-43.008 340.992c-78.848-1.024-115.712-21.504-126.976-29.696L324.608 419.84c1.024-4.096-2.048-9.216-6.144-10.24-4.096-1.024-9.216 2.048-10.24 6.144l-69.632 323.584c-66.56-2.048-96.256-29.696-104.448-38.912 24.576-116.736 74.752-259.072 114.688-359.424 15.36 7.168 75.776 27.648 247.808 27.648 171.008 0 231.424-19.456 247.808-26.624 38.912 100.352 89.088 242.688 113.664 359.424-10.24 8.192-45.056 35.84-103.424 38.912z" fill="#3B0005" p-id="1987"></path><path d="M248.832 342.016c-38.912 100.352-90.112 242.688-114.688 359.424 8.192 8.192 37.888 35.84 104.448 38.912l69.632-323.584c1.024-4.096 5.12-7.168 10.24-6.144 4.096 1.024 7.168 5.12 6.144 10.24l-70.656 323.584c11.264 7.168 48.128 28.672 126.976 29.696l43.008-340.992c1.024-4.096 5.12-7.168 9.216-7.168 4.096 1.024 7.168 5.12 7.168 9.216l-43.008 336.896c10.24 5.12 41.984 18.432 98.304 18.432 57.344 0 88.064-13.312 98.304-18.432l-43.008-327.68c-1.024-4.096 3.072-8.192 7.168-9.216 4.096-1.024 8.192 3.072 9.216 7.168l43.008 332.8c72.704 6.144 114.688-20.48 126.976-29.696l-76.8-318.464c-1.024-4.096 2.048-9.216 6.144-10.24 4.096-1.024 9.216 2.048 10.24 6.144l76.8 318.464c58.368-2.048 93.184-29.696 103.424-38.912-24.576-116.736-74.752-259.072-113.664-359.424-16.384 7.168-76.8 26.624-247.808 26.624-171.008-1.024-231.424-21.504-246.784-27.648z" fill="#F20000" p-id="1988"></path><path d="M281.6 260.096c-7.168 17.408-16.384 39.936-26.624 65.536 10.24 5.12 66.56 25.6 241.664 25.6 173.056 0 230.4-20.48 241.664-25.6-10.24-25.6-19.456-48.128-26.624-65.536-19.456 3.072-93.184 15.36-209.92 15.36-119.808 0-200.704-11.264-220.16-15.36zM678.912 212.992c-28.672-5.12-93.184-10.24-182.272-10.24s-153.6 5.12-182.272 10.24c28.672 5.12 93.184 10.24 182.272 10.24s153.6-5.12 182.272-10.24z" fill="#F4EEEB" p-id="1989"></path><path d="M705.536 244.736c-3.072-8.192-6.144-14.336-8.192-19.456-9.216 3.072-25.6 6.144-56.32 9.216-38.912 3.072-90.112 5.12-145.408 5.12s-106.496-2.048-145.408-5.12c-29.696-3.072-46.08-5.12-55.296-9.216-2.048 5.12-5.12 11.264-8.192 19.456 24.576 4.096 102.4 14.336 214.016 14.336 109.568 0 181.248-10.24 204.8-14.336z" fill="#FF1240" p-id="1990"></path><path d="M688.128 247.808c7.168-1.024 13.312-2.048 18.432-3.072-3.072-8.192-6.144-14.336-8.192-19.456-4.096 1.024-9.216 3.072-16.384 4.096 0 5.12 3.072 11.264 6.144 18.432z" fill="#F20000" p-id="1991"></path><path d="M815.104 634.88c-11.264-44.032-26.624-104.448-33.792-125.952-12.288-40.96-60.416-159.744-60.416-159.744-32.768 9.216-99.328 19.456-224.256 19.456-172.032 0-232.448-19.456-247.808-26.624-36.864 94.208-83.968 227.328-109.568 339.968 0 0 28.672 15.36 46.08 21.504 20.48 8.192 44.032-3.072 50.176-24.576l74.752-262.144c1.024-4.096 5.12-7.168 10.24-6.144 4.096 1.024 7.168 5.12 6.144 10.24l-64.512 297.984s38.912 17.408 59.392 21.504c5.12 1.024 9.216 2.048 14.336 2.048 19.456 3.072 37.888-10.24 41.984-30.72l47.104-256 3.072-23.552c1.024-4.096 5.12-7.168 9.216-7.168 4.096 1.024 7.168 5.12 7.168 9.216l-39.936 310.272s47.104 14.336 91.136 16.384c14.336 0 28.672-1.024 41.984-2.048 19.456-2.048 33.792-19.456 32.768-38.912l-9.216-235.52-5.12-39.936c-1.024-4.096 3.072-8.192 7.168-9.216 4.096-1.024 8.192 3.072 9.216 7.168l39.936 303.104s28.672 3.072 62.464-4.096h1.024c18.432-4.096 30.72-21.504 28.672-40.96L670.72 460.8l-8.192-34.816c-1.024-4.096 2.048-9.216 6.144-10.24 4.096-1.024 9.216 2.048 10.24 6.144l70.656 291.84c9.216-3.072 20.48-7.168 31.744-11.264 24.576-10.24 39.936-39.936 33.792-67.584z" fill="#FF1240" p-id="1992"></path></svg>