<?xml version="1.0" standalone="no"?><!DOCTYPE svg PUBLIC "-//W3C//DTD SVG 1.1//EN" "http://www.w3.org/Graphics/SVG/1.1/DTD/svg11.dtd"><svg t="1584780979002" class="icon" viewBox="0 0 1024 1024" version="1.1" xmlns="http://www.w3.org/2000/svg" p-id="1530" xmlns:xlink="http://www.w3.org/1999/xlink" width="32" height="32"><defs><style type="text/css"></style></defs><path d="M890.88 374.784c-5.12-31.744-101.376-128-137.216-151.552-15.36-9.216-66.56-25.6-106.496-36.864-3.072-1.024-5.12-2.048-8.192-2.048h-1.024c-5.12-1.024-10.24-3.072-14.336-4.096h-1.024l-12.288-3.072h-1.024c-3.072-1.024-6.144-2.048-8.192-2.048-1.024 0-2.048 0-2.048-1.024-2.048-1.024-4.096 0-5.12 1.024h-2.048c-5.12 1.024-8.192 5.12-9.216 6.144-15.36 20.48-40.96 33.792-81.92 39.936-41.984 7.168-72.704 3.072-91.136-12.288-4.096-3.072-9.216-4.096-13.312-3.072l-3.072 1.024c-1.024 0-2.048 1.024-3.072 2.048 0 0-1.024 0-1.024 1.024-11.264 7.168-113.664 74.752-131.072 97.28-26.624 33.792-87.04 155.648-81.92 187.392 3.072 19.456 22.528 34.816 38.912 45.056 24.576 14.336 59.392 27.648 83.968 27.648 5.12 0 10.24-1.024 14.336-2.048 5.12-2.048 10.24-6.144 14.336-12.288 0 83.968 3.072 184.32 11.264 246.784 0 2.048 1.024 3.072 1.024 4.096 2.048 14.336 5.12 25.6 7.168 34.816 6.144 34.816 66.56 50.176 142.336 50.176 36.864 0 76.8-3.072 116.736-10.24 64.512-10.24 123.904-27.648 166.912-49.152 37.888-18.432 60.416-37.888 65.536-57.344 1.024-1.024 1.024-2.048 1.024-3.072 5.12-43.008-35.84-181.248-72.704-288.768 6.144 4.096 12.288 8.192 17.408 8.192 24.576 0 63.488-29.696 86.016-55.296 9.216-18.432 23.552-38.912 20.48-58.368z" fill="#F2EDEC" p-id="1531"></path><path d="M474.112 281.6c-8.192 1.024-17.408 2.048-25.6 2.048-60.416 0-110.592-33.792-128-73.728-35.84 24.576-81.92 57.344-92.16 70.656-20.48 25.6-53.248 91.136-68.608 135.168l2.048 1.024c-1.024 4.096 13.312 27.648 53.248 46.08 40.96 19.456 65.536 22.528 69.632 19.456l-1.024 1.024 1.024 1.024c0-1.024 1.024-2.048 1.024-3.072 1.024-61.44 3.072-106.496 6.144-110.592 1.024-2.048 4.096-4.096 7.168-4.096 4.096 0 8.192 3.072 8.192 8.192 0 1.024 0 2.048-1.024 3.072-3.072 18.432-10.24 269.312 6.144 382.976 5.12 30.72 105.472 48.128 242.688 25.6 63.488-10.24 121.856-27.648 163.84-48.128 38.912-18.432 59.392-38.912 57.344-54.272h1.024c-20.48-113.664-107.52-348.16-115.712-365.568-1.024-1.024-1.024-2.048-1.024-3.072-1.024-4.096 1.024-9.216 5.12-10.24 3.072-1.024 6.144 0 8.192 1.024 4.096 3.072 20.48 45.056 40.96 102.4l3.072 3.072-1.024-1.024c5.12 1.024 27.648-10.24 59.392-40.96 31.744-30.72 37.888-57.344 34.816-61.44l2.048-2.048c-29.696-36.864-80.896-88.064-108.544-105.472-13.312-8.192-67.584-25.6-110.592-36.864-3.072 49.152-49.152 105.472-119.808 117.76z" fill="#2ABC88" p-id="1532"></path><path d="M389.719484 560.148138a126.976 126.976 0 1 0 250.609684-41.065857 126.976 126.976 0 1 0-250.609684 41.065857Z" fill="#FFFFFF" p-id="1533"></path><path d="M514.048 675.84c-27.648 0-55.296-9.216-78.848-25.6-29.696-21.504-49.152-52.224-54.272-88.064-12.288-73.728 37.888-143.36 111.616-155.648 73.728-12.288 143.36 37.888 155.648 111.616 6.144 35.84-2.048 71.68-23.552 101.376s-52.224 49.152-88.064 54.272c-7.168 1.024-14.336 2.048-22.528 2.048z m1.024-254.976c-6.144 0-13.312 1.024-19.456 2.048-64.512 10.24-108.544 71.68-98.304 137.216 5.12 31.744 22.528 59.392 48.128 77.824 25.6 18.432 57.344 25.6 89.088 20.48 31.744-5.12 59.392-22.528 77.824-48.128 18.432-25.6 25.6-57.344 20.48-89.088-5.12-31.744-22.528-59.392-48.128-77.824-20.48-15.36-45.056-22.528-69.632-22.528z" fill="#231815" p-id="1534"></path><path d="M437.248 545.792c-4.096 0-7.168-3.072-8.192-7.168-1.024-8.192 1.024-16.384 5.12-23.552 5.12-7.168 12.288-11.264 20.48-13.312 8.192-1.024 16.384 1.024 23.552 5.12 7.168 5.12 11.264 12.288 13.312 20.48 1.024 4.096-2.048 8.192-7.168 9.216-4.096 1.024-8.192-2.048-9.216-7.168-1.024-4.096-3.072-8.192-6.144-10.24-3.072-2.048-7.168-3.072-11.264-3.072-4.096 1.024-8.192 3.072-10.24 6.144-2.048 3.072-3.072 7.168-3.072 11.264 1.024 4.096-2.048 8.192-7.168 9.216 1.024 3.072 1.024 3.072 0 3.072zM540.672 528.384c-4.096 0-7.168-3.072-8.192-7.168-1.024-8.192 1.024-16.384 5.12-23.552 5.12-7.168 12.288-11.264 20.48-13.312 8.192-1.024 16.384 1.024 23.552 5.12s11.264 12.288 13.312 20.48c1.024 4.096-2.048 8.192-7.168 9.216-4.096 1.024-8.192-2.048-9.216-7.168-1.024-4.096-3.072-8.192-6.144-10.24-3.072-2.048-7.168-3.072-11.264-3.072-4.096 1.024-8.192 3.072-10.24 6.144s-3.072 7.168-3.072 11.264c1.024 4.096-2.048 8.192-7.168 9.216v3.072zM517.12 607.232c-7.168 0-14.336-2.048-20.48-5.12-9.216-4.096-15.36-12.288-16.384-21.504-1.024-4.096 2.048-8.192 7.168-9.216 4.096-1.024 8.192 2.048 9.216 7.168 1.024 5.12 5.12 8.192 8.192 9.216 5.12 3.072 12.288 3.072 18.432 2.048 13.312-2.048 22.528-11.264 21.504-19.456-1.024-4.096 2.048-8.192 7.168-9.216 4.096-1.024 8.192 2.048 9.216 7.168 3.072 17.408-12.288 34.816-34.816 37.888-3.072 1.024-6.144 1.024-9.216 1.024z" fill="#231815" p-id="1535"></path><path d="M850.944 338.944c-5.12-31.744-101.376-128-137.216-151.552-23.552-15.36-141.312-47.104-154.624-50.176-2.048-1.024-4.096 0-5.12 1.024h-2.048c-5.12 1.024-8.192 5.12-9.216 6.144-15.36 20.48-40.96 33.792-81.92 39.936-41.984 7.168-72.704 3.072-91.136-12.288-4.096-3.072-9.216-4.096-13.312-3.072l-3.072 1.024c-1.024 0-2.048 1.024-3.072 2.048 0 0-1.024 0-1.024 1.024-11.264 7.168-113.664 74.752-131.072 97.28-26.624 33.792-87.04 155.648-81.92 187.392 3.072 19.456 22.528 34.816 38.912 45.056 24.576 14.336 59.392 27.648 83.968 27.648 5.12 0 10.24-1.024 14.336-2.048 5.12-2.048 10.24-6.144 14.336-12.288 0 83.968 3.072 184.32 11.264 246.784 0 2.048 1.024 3.072 1.024 4.096 2.048 14.336 5.12 25.6 7.168 34.816 6.144 34.816 66.56 50.176 142.336 50.176 36.864 0 76.8-3.072 116.736-10.24 64.512-10.24 123.904-27.648 166.912-49.152 37.888-18.432 60.416-37.888 65.536-57.344 1.024-1.024 1.024-2.048 1.024-3.072 5.12-43.008-35.84-181.248-72.704-288.768 6.144 4.096 12.288 8.192 17.408 8.192 24.576 0 63.488-29.696 86.016-55.296 10.24-16.384 23.552-37.888 20.48-57.344z m-493.568-153.6c22.528 18.432 57.344 23.552 104.448 16.384 44.032-7.168 72.704-20.48 91.136-44.032-1.024 36.864-37.888 70.656-87.04 78.848-50.176 8.192-97.28-13.312-108.544-50.176v-1.024z m-15.36 10.24c13.312 35.84 54.272 59.392 101.376 59.392 8.192 0 16.384-1.024 24.576-2.048 57.344-9.216 100.352-50.176 101.376-95.232l9.216 3.072c-2.048 43.008-41.984 94.208-106.496 105.472-64.512 10.24-121.856-24.576-137.216-65.536 2.048-2.048 4.096-4.096 7.168-5.12zM266.24 512c-14.336 5.12-54.272-4.096-86.016-23.552-18.432-11.264-29.696-23.552-30.72-33.792-1.024-4.096 0-10.24 3.072-19.456 9.216 13.312 27.648 29.696 54.272 41.984 16.384 7.168 47.104 20.48 68.608 21.504-3.072 7.168-7.168 12.288-9.216 13.312z m515.072 210.944c2.048 15.36-19.456 34.816-57.344 54.272-41.984 20.48-99.328 37.888-162.816 48.128-124.928 20.48-220.16 6.144-237.568-19.456v-1.024c-2.048-4.096-3.072-8.192-5.12-14.336 25.6 15.36 69.632 21.504 120.832 21.504 37.888 0 78.848-3.072 117.76-10.24 64.512-10.24 124.928-28.672 168.96-50.176 25.6-12.288 44.032-25.6 55.296-37.888v9.216zM716.8 411.648l-3.072-3.072c-20.48-57.344-36.864-99.328-40.96-102.4-2.048-2.048-5.12-2.048-8.192-1.024-4.096 1.024-7.168 6.144-5.12 10.24 0 1.024 1.024 2.048 1.024 3.072 8.192 16.384 96.256 251.904 115.712 365.568h-1.024c2.048 15.36-19.456 34.816-57.344 54.272-41.984 20.48-100.352 37.888-163.84 48.128-136.192 22.528-237.568 4.096-242.688-25.6-17.408-113.664-9.216-364.544-6.144-382.976 0-1.024 1.024-2.048 1.024-3.072 0-4.096-4.096-8.192-8.192-8.192-3.072 0-5.12 2.048-7.168 4.096-2.048 4.096-5.12 50.176-6.144 110.592 0 1.024-1.024 2.048-1.024 3.072l-1.024-1.024c0-1.024 1.024-1.024 1.024-1.024-4.096 3.072-28.672 0-69.632-19.456-39.936-18.432-54.272-41.984-53.248-46.08l-2.048-1.024c16.384-44.032 49.152-109.568 68.608-135.168 10.24-12.288 56.32-45.056 92.16-70.656 17.408 39.936 68.608 73.728 128 73.728 8.192 0 17.408-1.024 25.6-2.048 71.68-11.264 116.736-68.608 120.832-116.736 41.984 12.288 97.28 28.672 110.592 36.864 26.624 17.408 78.848 68.608 108.544 105.472l-2.048 2.048c2.048 4.096-3.072 30.72-34.816 61.44-33.792 30.72-55.296 41.984-59.392 40.96-1.024 0-1.024 0 0 0z m99.328-27.648c-23.552 28.672-58.368 50.176-73.728 50.176-2.048 0-7.168-4.096-13.312-9.216 20.48-8.192 45.056-29.696 57.344-41.984 22.528-21.504 34.816-43.008 38.912-58.368 5.12 8.192 9.216 14.336 9.216 18.432 2.048 9.216-5.12 24.576-18.432 40.96z" fill="#231815" p-id="1536"></path><path d="M850.944 338.944c-5.12-31.744-101.376-128-137.216-151.552-23.552-15.36-141.312-47.104-154.624-50.176-2.048-1.024-4.096 0-5.12 1.024h-2.048c-5.12 1.024-8.192 5.12-9.216 6.144-15.36 20.48-40.96 33.792-81.92 39.936-41.984 7.168-72.704 3.072-91.136-12.288-4.096-3.072-9.216-4.096-13.312-3.072l-3.072 1.024c-1.024 0-2.048 1.024-3.072 2.048 0 0-1.024 0-1.024 1.024-11.264 7.168-113.664 74.752-131.072 97.28-26.624 33.792-87.04 155.648-81.92 187.392 3.072 19.456 22.528 34.816 38.912 45.056 24.576 14.336 59.392 27.648 83.968 27.648 5.12 0 10.24-1.024 14.336-2.048 5.12-2.048 10.24-6.144 14.336-12.288 0 83.968 3.072 184.32 11.264 246.784 0 2.048 1.024 3.072 1.024 4.096 2.048 14.336 5.12 25.6 7.168 34.816 6.144 34.816 66.56 50.176 142.336 50.176 36.864 0 76.8-3.072 116.736-10.24 64.512-10.24 123.904-27.648 166.912-49.152 37.888-18.432 60.416-37.888 65.536-57.344 1.024-1.024 1.024-2.048 1.024-3.072 5.12-43.008-35.84-181.248-72.704-288.768 6.144 4.096 12.288 8.192 17.408 8.192 24.576 0 63.488-29.696 86.016-55.296 10.24-16.384 23.552-37.888 20.48-57.344z m-493.568-153.6c22.528 18.432 57.344 23.552 104.448 16.384 44.032-7.168 72.704-20.48 91.136-44.032-1.024 36.864-37.888 70.656-87.04 78.848-50.176 8.192-97.28-13.312-108.544-50.176v-1.024z m-15.36 10.24c13.312 35.84 54.272 59.392 101.376 59.392 8.192 0 16.384-1.024 24.576-2.048 57.344-9.216 100.352-50.176 101.376-95.232l9.216 3.072c-2.048 43.008-41.984 94.208-106.496 105.472-64.512 10.24-121.856-24.576-137.216-65.536 2.048-2.048 4.096-4.096 7.168-5.12zM266.24 512c-14.336 5.12-54.272-4.096-86.016-23.552-18.432-11.264-29.696-23.552-30.72-33.792-1.024-4.096 0-10.24 3.072-19.456 9.216 13.312 27.648 29.696 54.272 41.984 16.384 7.168 47.104 20.48 68.608 21.504-3.072 7.168-7.168 12.288-9.216 13.312z m515.072 210.944c2.048 15.36-19.456 34.816-57.344 54.272-41.984 20.48-99.328 37.888-162.816 48.128-124.928 20.48-220.16 6.144-237.568-19.456v-1.024c-2.048-4.096-3.072-8.192-5.12-14.336 25.6 15.36 69.632 21.504 120.832 21.504 37.888 0 78.848-3.072 117.76-10.24 64.512-10.24 124.928-28.672 168.96-50.176 25.6-12.288 44.032-25.6 55.296-37.888v9.216zM716.8 411.648l-3.072-3.072c-20.48-57.344-36.864-99.328-40.96-102.4-2.048-2.048-5.12-2.048-8.192-1.024-4.096 1.024-7.168 6.144-5.12 10.24 0 1.024 1.024 2.048 1.024 3.072 8.192 16.384 96.256 251.904 115.712 365.568h-1.024c2.048 15.36-19.456 34.816-57.344 54.272-41.984 20.48-100.352 37.888-163.84 48.128-136.192 22.528-237.568 4.096-242.688-25.6-17.408-113.664-9.216-364.544-6.144-382.976 0-1.024 1.024-2.048 1.024-3.072 0-4.096-4.096-8.192-8.192-8.192-3.072 0-5.12 2.048-7.168 4.096-2.048 4.096-5.12 50.176-6.144 110.592 0 1.024-1.024 2.048-1.024 3.072l-1.024-1.024c0-1.024 1.024-1.024 1.024-1.024-4.096 3.072-28.672 0-69.632-19.456-39.936-18.432-54.272-41.984-53.248-46.08l-2.048-1.024c16.384-44.032 49.152-109.568 68.608-135.168 10.24-12.288 56.32-45.056 92.16-70.656 17.408 39.936 68.608 73.728 128 73.728 8.192 0 17.408-1.024 25.6-2.048 71.68-11.264 116.736-68.608 120.832-116.736 41.984 12.288 97.28 28.672 110.592 36.864 26.624 17.408 78.848 68.608 108.544 105.472l-2.048 2.048c2.048 4.096-3.072 30.72-34.816 61.44-33.792 30.72-55.296 41.984-59.392 40.96-1.024 0-1.024 0 0 0z m99.328-27.648c-23.552 28.672-58.368 50.176-73.728 50.176-2.048 0-7.168-4.096-13.312-9.216 20.48-8.192 45.056-29.696 57.344-41.984 22.528-21.504 34.816-43.008 38.912-58.368 5.12 8.192 9.216 14.336 9.216 18.432 2.048 9.216-5.12 24.576-18.432 40.96z" fill="#3B0005" p-id="1537"></path><path d="M559.104 138.24c-2.048-1.024-4.096 0-5.12 1.024h-2.048c-5.12 1.024-8.192 5.12-9.216 6.144-2.048 2.048-3.072 4.096-5.12 6.144h71.68c-25.6-7.168-45.056-12.288-50.176-13.312z" fill="#231815" p-id="1538"></path><path d="M152.576 435.2c-2.048 8.192-3.072 15.36-3.072 19.456 2.048 10.24 13.312 22.528 30.72 33.792 31.744 19.456 71.68 28.672 86.016 23.552 2.048-1.024 6.144-6.144 10.24-12.288-21.504-1.024-53.248-14.336-68.608-21.504-27.648-13.312-46.08-29.696-55.296-43.008zM726.016 751.616c-44.032 21.504-103.424 38.912-168.96 50.176-39.936 6.144-80.896 10.24-117.76 10.24-51.2 0-95.232-7.168-120.832-21.504 2.048 5.12 3.072 10.24 5.12 14.336v1.024c17.408 26.624 111.616 40.96 237.568 19.456 62.464-10.24 120.832-27.648 162.816-48.128 37.888-18.432 59.392-38.912 56.32-54.272h1.024v-9.216c-11.264 13.312-29.696 25.6-55.296 37.888zM729.088 424.96c6.144 5.12 11.264 9.216 13.312 9.216 15.36 0 49.152-21.504 73.728-50.176 13.312-16.384 20.48-31.744 18.432-41.984-1.024-4.096-4.096-10.24-9.216-18.432-4.096 15.36-16.384 37.888-38.912 58.368-12.288 12.288-37.888 34.816-57.344 43.008z" fill="#FFFFFF" p-id="1539"></path><path d="M357.376 185.344h-1.024v1.024c11.264 36.864 58.368 58.368 108.544 50.176 49.152-8.192 86.016-41.984 87.04-78.848-18.432 22.528-47.104 36.864-91.136 44.032-46.08 7.168-80.896 2.048-103.424-16.384z" fill="#F4EEEB" p-id="1540"></path><path d="M467.968 252.928c-8.192 1.024-16.384 2.048-24.576 2.048-47.104 0-88.064-23.552-101.376-59.392-2.048 2.048-5.12 3.072-7.168 5.12 15.36 39.936 72.704 75.776 137.216 65.536 64.512-10.24 105.472-62.464 106.496-105.472l-9.216-3.072c-2.048 45.056-45.056 86.016-101.376 95.232z" fill="#FFFFFF" p-id="1541"></path><path d="M749.568 392.192c-18.432 14.336-30.72 19.456-34.816 18.432 0 0 1.024 0 1.024 1.024l-3.072-3.072c-20.48-57.344-36.864-99.328-40.96-102.4-2.048-2.048-5.12-2.048-8.192-1.024-4.096 1.024-7.168 6.144-5.12 10.24 0 1.024 1.024 2.048 1.024 3.072 8.192 16.384 96.256 251.904 115.712 365.568h-1.024c2.048 15.36-19.456 34.816-57.344 54.272-41.984 20.48-100.352 37.888-163.84 48.128-136.192 22.528-237.568 4.096-242.688-25.6-2.048-11.264-2.048-9.216-3.072-22.528 0 0 44.032 44.032 224.256 19.456 87.04-12.288 139.264-30.72 168.96-47.104 26.624-14.336 38.912-44.032 32.768-72.704-10.24-47.104-29.696-129.024-50.176-197.632-37.888-123.904-32.768-97.28-44.032-146.432-2.048-9.216 1.024-16.384 8.192-18.432 9.216-4.096 15.36 3.072 35.84 31.744" fill="#27AF7B" p-id="1542"></path></svg>